<svg width="548" height="6" viewBox="0 0 548 6" fill="none" xmlns="http://www.w3.org/2000/svg">
<path d="M42.4019 5.46007C42.741 5.45372 44.1049 5.46915 44.6952 5.46648C44.026 5.53355 41.1789 5.4831 42.4019 5.46007ZM102.963 0.589581C102.473 0.606163 101.983 0.622745 101.493 0.639327C102.885 0.650101 104.756 0.637931 106.048 0.653671C106.259 0.656314 105.711 0.704324 106.211 0.706468C106.711 0.708598 106.615 0.642988 107.342 0.63597C108.158 0.628297 111.893 0.674006 113.187 0.672898C118.025 0.668468 122.905 0.630999 127.753 0.658249C122.748 0.706789 127.792 0.756192 129.194 0.735156C129.504 0.730285 129.455 0.60831 134.476 0.639022C137.668 0.658512 134.72 0.832892 140.045 0.745532C135.95 0.623541 139.977 0.63209 143.187 0.628035C143.741 0.627317 148.21 0.645645 150.184 0.640243C150.859 0.638364 151.889 0.574473 152.784 0.572796C153.401 0.57169 153.867 0.60662 154.783 0.604841C159.051 0.596968 163.249 0.594252 167.524 0.606062C165.026 0.770246 169.486 0.676035 169.686 0.683884C170.704 0.728462 166.097 0.741151 167.919 0.769032C170.466 0.763945 173.012 0.758859 175.558 0.753772C173.468 0.733613 178.324 0.615513 179.218 0.669235C178.825 0.524156 190.823 0.795507 192.65 0.747058C193.03 0.736824 190.54 0.665121 196.316 0.697923C196.942 0.701568 196.705 0.74534 197.033 0.74126C197.23 0.738806 198.419 0.599682 199.686 0.67656C200.149 0.704619 197.189 0.795993 203.689 0.759266C201.1 0.617665 212.703 0.68258 214.838 0.718065C214.411 0.699042 213.985 0.680019 213.558 0.660995C215.669 0.712314 216.049 0.66417 216.525 0.666794C218.44 0.677332 221.074 0.72585 222.859 0.721422C224.947 0.716328 224.954 0.628266 227.389 0.662521C226.811 0.643091 226.233 0.623661 225.656 0.60423C227.337 0.60891 229.019 0.61359 230.7 0.618269C226.806 0.734839 231.54 0.623831 231.852 0.621321C232.349 0.617078 231.635 0.664802 232.467 0.658859C232.553 0.657881 232.428 0.61294 233.71 0.607893C236.389 0.597501 235.966 0.654005 237.091 0.653366C237.194 0.653074 236.833 0.612588 238.776 0.60301C244.95 0.572518 238.745 0.634036 238.508 0.639632C238.197 0.647013 240.314 0.816208 235.069 0.756214C236.83 0.775313 237.007 0.850184 237.206 0.852043C237.381 0.853571 240.432 0.843024 240.6 0.840446C242.1 0.815021 240.781 0.763856 241.073 0.754688C241.312 0.747297 244.988 0.813973 245.85 0.66008C247.608 0.802028 244.838 0.789024 241.888 0.810842C241.458 0.839971 244.697 0.868295 244.867 0.868217C249.045 0.867959 246.732 0.751197 247.645 0.67656C248.125 0.637508 249.827 0.717166 248.256 0.612471C252.048 0.601419 249.748 0.662088 249.993 0.671067C250.363 0.684258 251.689 0.654252 251.856 0.658249C252.099 0.664166 251.252 0.700414 252.213 0.713182C252.373 0.715039 253.921 0.652662 251.925 0.622847C254.593 0.631714 254.373 0.578525 255.278 0.685715C257.115 0.482925 256.611 0.805583 257.335 0.816946C259.259 0.846898 258.701 0.687681 258.802 0.679917C259.502 0.630162 264.829 0.684857 266.148 0.661911C265.628 0.776588 261.925 0.663163 261.097 0.68541C258.338 0.759427 264.987 0.742745 262.983 0.886834C263.823 0.847261 264.664 0.807689 265.504 0.768116C267.045 0.86076 264.859 0.901157 269.006 0.867302C269.684 0.787338 266.074 0.879932 266.798 0.816946C267.225 0.77998 269.629 0.772041 269.677 0.752552C269.724 0.729092 267.551 0.756895 267.894 0.720812C268.641 0.642946 276.567 0.717074 270.534 0.759571C272.217 0.75824 273.084 0.913118 274.543 0.864861C275.487 0.833537 270.178 0.619634 278.143 0.658859C278.313 0.731993 274.958 0.680455 274.871 0.686021C274.749 0.694122 275.356 0.859156 275.461 0.867302C275.832 0.894121 283.967 0.805749 285.685 0.888665C285.005 0.793282 291.832 0.871645 292.576 0.842582C292.774 0.834558 292.034 0.776131 292.245 0.769947C293.565 0.73314 297.136 0.837438 298.793 0.84014C300.646 0.843202 300.412 0.792741 300.515 0.792836C301.331 0.795651 300.679 0.82986 301.178 0.829764C301.931 0.8296 307.108 0.836596 307.368 0.829459C307.444 0.827234 306.599 0.76959 307.727 0.758655C307.923 0.756761 307.799 0.825105 311.141 0.795583C315.166 0.760077 308.346 0.710593 310.018 0.639022C312.604 0.740928 312.52 0.639943 313.221 0.647872C313.464 0.65076 315.27 0.73662 317.233 0.731188C315.824 0.745125 314.416 0.759062 313.008 0.772999C314.392 0.788054 317.081 0.76942 318.221 0.786427C318.778 0.794706 318.319 0.86524 319.528 0.863334C319.784 0.862546 320.802 0.690705 317.636 0.767811C317.383 0.706452 318.89 0.746408 319.589 0.729052C319.694 0.726348 320.111 0.62384 321.004 0.687547C321.218 0.70322 318.885 1.00224 324.902 0.785817C325.096 0.778842 324.422 0.741393 324.612 0.73363C324.741 0.728373 326.278 0.743521 326.447 0.738208C326.621 0.732507 325.879 0.691624 326.086 0.683579C327.145 0.642126 328.536 0.804276 326.351 0.791921C327.081 0.811961 327.812 0.832002 328.542 0.852043C327.76 0.729836 329.689 0.817658 330.699 0.813894C337.175 0.789841 332.839 0.710359 333.952 0.669235C335.743 0.603207 334.375 0.81234 337.033 0.7495C337.279 0.743624 334.066 0.654851 340.34 0.704942C339.414 0.708401 338.488 0.71186 337.562 0.715319C338.096 0.83352 340.906 0.707211 341.122 0.705553C343.586 0.689323 341.92 0.731934 345.579 0.671067C345.906 0.665602 346.618 0.694773 347.316 0.680222C350.213 0.620274 343.495 0.643845 343.311 0.59599C343.224 0.572542 350.449 0.578448 350.697 0.589581C351.75 0.638936 347.422 0.61132 348.247 0.672592C348.548 0.694349 358.845 0.649664 360.911 0.673508C363.294 0.701254 364.368 0.861513 364.383 0.681443C365.056 0.858197 365.65 0.737601 365.955 0.738818C369.641 0.75518 369.648 0.756964 372.809 0.740039C373.508 0.73636 374.097 0.78999 374.344 0.780934C374.488 0.775465 374.219 0.718072 374.923 0.700365C375.901 0.67614 381.778 0.73517 382.215 0.766895C382.651 0.798621 379.733 0.780654 380.256 0.832816C382.368 0.838089 384.394 0.825182 386.521 0.830679C387.404 0.833119 386.95 0.869628 387.332 0.870354C387.494 0.870803 390.545 0.838653 390.415 0.825186C390.113 0.793872 380.694 0.814921 383.174 0.751026C383.652 0.738679 385.343 0.82281 385.074 0.720507C393.489 0.743701 401.904 0.766895 410.319 0.79009C405.484 0.866608 400.043 0.798175 394.979 0.805349C394.285 0.806235 391.938 0.796367 392.224 0.848075C396.53 0.861462 401.884 0.83452 406.019 0.868217C406.151 0.869332 405.665 0.915789 406.161 0.923151C407.087 0.936892 410.104 0.861965 410.611 0.881341C410.698 0.885854 408.981 0.947099 409.503 0.98602C410.843 1.0859 411.184 0.864681 412.336 0.867302C413.227 0.869423 419.215 0.976386 420.706 0.908808C422.292 0.836776 416.293 0.866989 416.736 0.808096C420.795 0.748911 424.905 0.812112 428.74 0.804739C428.807 0.804551 428.221 0.758399 429.076 0.751941C430.565 0.740703 430.956 0.806168 431.681 0.816641C432.463 0.827789 435.227 0.818408 435.596 0.842277C435.644 0.845406 435.084 0.910339 434.999 0.912164C433.795 0.938926 433.367 0.85465 433.257 0.853569C432.846 0.850373 432.441 0.882653 432.066 0.88073C431.447 0.877524 431.107 0.84766 430.291 0.845023C429.728 0.843093 430.271 0.900443 429.729 0.897821C429.529 0.896626 427.381 0.765672 427.18 0.899347C427.118 0.941494 444.69 0.995618 446.446 0.96191C444.939 0.945837 443.433 0.929764 441.926 0.913691C444.986 0.952816 448.661 0.846009 448.921 1.00403C460.266 1.01695 471.611 1.02987 482.956 1.04278C484.981 1.05625 483.871 1.15779 487.204 1.12824C486.342 1.09589 485.481 1.06354 484.62 1.03119C486.328 1.05388 493.897 1.09822 495.122 1.07727C495.281 1.07453 495.501 0.982624 497.393 0.974728C499.071 0.967756 499.34 1.03661 500.238 1.0498C500.991 1.06069 501.837 1.04265 502.061 1.04645C502.232 1.04949 502.3 1.0916 502.713 1.09894C504.016 1.12164 502.96 1.00308 504.253 1.13922C503.938 1.14441 503.624 1.1496 503.309 1.15479C504.881 1.17449 507.03 1.2363 504.713 1.26679C504.315 1.27206 504.657 1.23132 504.36 1.23139C492.727 1.23896 502.016 1.31815 506.093 1.25489C507.14 1.31525 513.008 1.2784 513.203 1.29029C513.474 1.30752 512.47 1.35576 513.786 1.39741C514.063 1.40623 521.908 1.37243 519.083 1.45265C518.5 1.4692 514.739 1.45181 513.832 1.45418C515.965 1.58211 520.967 1.39882 521.529 1.40352C523.798 1.42345 517.171 1.51439 522.282 1.52925C526.211 1.54066 522.522 1.45524 524.033 1.41878C524.883 1.39832 529.33 1.49242 529.209 1.37056C530.736 1.35754 529.843 1.42207 530.031 1.42671C530.215 1.43079 533.216 1.39431 534.191 1.42C534.309 1.42319 533.937 1.48653 534.059 1.49172C534.297 1.50059 537.191 1.48793 537.308 1.48256C537.382 1.47883 536.692 1.42337 536.975 1.40993C537.306 1.39442 540.091 1.40747 540.245 1.39161C540.462 1.36765 537.023 1.38344 537.596 1.32142C539.181 1.33704 541.764 1.29566 542.81 1.24573C542.553 1.26001 541.017 1.26206 540.483 1.25703C540.734 1.1662 544.034 1.16744 542.906 1.23933C543.623 1.20072 543.133 1.18024 543.537 1.1438C543.643 1.13457 544.662 1.13267 544.859 1.11695C544.884 1.11381 543.833 1.07954 544.043 1.0611C544.424 1.02776 547.513 1.03526 547.766 1.04401C548.478 1.06879 545.959 1.09878 545.749 1.13709C545.719 1.14297 547.861 1.21805 547.894 1.22468C548.019 1.29582 545.635 1.24455 545.908 1.3086C546.497 1.32213 547.087 1.33566 547.676 1.34919C545.403 1.41406 541.196 1.3807 540.111 1.45448C543.482 1.43253 547.011 1.43512 547.003 1.60128C547.001 1.67125 545.546 1.71227 545.603 1.73007C545.817 1.79373 547.836 1.72457 547.911 1.72793C547.972 1.73181 548 1.73559 548 1.73926C548 1.73927 548 1.73927 548 1.73927C548 1.77654 545.122 1.80338 544.978 1.8204C544.735 1.85063 546.017 1.97507 546.015 2.0026C545.97 2.00813 543.92 2.03758 544.612 2.08561C545.312 2.13413 547.106 2.1352 547.168 2.14024C547.511 2.16926 544.373 2.19573 544.279 2.21287C544.23 2.22154 545.915 2.27478 545.964 2.29009C546.006 2.30545 544.726 2.33896 544.221 2.38744C543.845 2.42346 544.94 2.45107 544.748 2.45672C544.61 2.46046 541.645 2.45985 541.499 2.46618C541.282 2.47554 541.977 2.51859 541.875 2.52935C541.732 2.54483 540.775 2.5293 540.899 2.54522C540.993 2.55709 544.705 2.70548 544.681 2.74512C544.638 2.81272 540.707 2.65717 544.365 2.92396C544.391 2.92571 545.281 2.90675 545.306 2.9084C545.855 2.95748 543.001 3.03299 546.491 3.01979C539.999 3.10504 545.683 3.12142 544.723 3.23525C544.352 3.27901 541.835 3.29705 541.823 3.30361C542.068 3.35912 542.87 3.31607 543.142 3.34329C543.292 3.3585 541.04 3.41718 541.547 3.45529C541.809 3.47493 544.2 3.46794 544.298 3.47177C545.244 3.5079 544.084 3.54682 544.292 3.57248C544.43 3.58969 545.872 3.59105 545.91 3.59415C545.971 3.6006 544.012 3.67012 543.604 3.69456C543.294 3.71336 544.458 3.74282 544.242 3.75102C542.938 3.80004 540.164 3.67502 542.837 3.8502C543 3.86095 544.011 3.85661 544.041 3.85875C544.666 3.90841 542.804 3.9127 542.471 3.95336C541.899 4.02341 544.575 3.98435 542.35 4.03362C544.019 4.07943 544.95 4.07752 546.903 4.06475C541.494 4.10038 539.585 4.28173 545.59 4.27716C543.68 4.27433 543.892 4.37669 543.322 4.37848C542.968 4.37948 540.198 4.27772 541.468 4.50605C541.627 4.53457 543.31 4.49833 542.783 4.55671C538.745 4.54181 542.697 4.59386 542.701 4.60157C542.649 4.73607 532.782 4.62591 531.087 4.64125C529.119 4.65904 527.371 4.76502 526.943 4.76515C525.536 4.7652 526.704 4.71139 526.389 4.6916C526.07 4.672 522.07 4.77509 521.87 4.76943C521.095 4.74669 521.881 4.68292 521.801 4.6797C520.841 4.64063 515.468 4.69056 513.964 4.67573C514.01 4.7171 517.03 4.72038 515.145 4.78682C512.949 4.86428 512.823 4.68193 512.766 4.6739C502.705 4.67563 492.644 4.67736 482.584 4.67909C482.709 4.77611 489.287 4.70294 489.436 4.71571C490.315 4.79134 479.204 4.78995 477.84 4.75569C478.876 4.77665 479.911 4.79761 480.947 4.81856C479.179 4.9301 475.266 4.78519 472.708 4.83443C471.882 4.8504 473.469 4.89345 473.436 4.89639C472.507 4.9397 471.017 4.90633 472.131 4.84817C469.865 4.9039 470.196 4.84241 468.456 4.83779C468.367 4.8376 469.114 4.88261 467.737 4.90127C467.092 4.90998 463.653 4.91012 463.193 4.94949C463.003 4.96606 464.748 5.14061 464.963 4.99038C468.704 5.06361 466.158 4.92193 467.612 4.92538C467.835 4.92616 467.322 5.01002 470.982 4.97055C470.285 5.12176 466.07 5.00869 465.348 5.02701C463.858 5.06465 469.997 5.14274 471.124 5.02487C470.597 5.14287 471.559 5.04077 472.928 5.04562C474.426 5.05088 473.773 5.08602 474.583 5.08621C476.8 5.08709 475.881 5.0038 477.709 5.07889C475.927 4.84642 480.837 5.04821 482.268 5.1091C479.94 5.1209 477.612 5.1327 475.284 5.1445C475.417 5.15671 475.55 5.16892 475.683 5.18113C475.07 5.1794 474.457 5.17767 473.843 5.17594C473.942 5.16424 474.04 5.15254 474.138 5.14084C470.976 5.2169 470.205 5.13141 469.947 5.13046C466.628 5.12055 462.794 5.12128 459.438 5.121C458.935 5.12096 459.28 5.19705 455.611 5.13748C454.44 5.11852 455.545 5.05932 454.218 5.06821C452.559 5.22905 452.59 5.10076 452.096 5.10056C450.68 5.10058 449.815 5.14042 449.684 5.14084C447.935 5.14706 445.372 5.14041 443.45 5.14633C443.414 5.14694 444.414 5.19636 443.166 5.18174C442.728 5.17651 438.795 4.96557 435.358 5.03433C436.252 5.04857 437.146 5.06281 438.04 5.07706C436.989 5.05715 429.623 5.11032 431.424 5.16678C432.528 5.20129 435.223 5.06533 435.519 5.19608C433.068 5.15695 419.53 5.21547 418.476 5.18509C418.33 5.18076 419.227 5.13833 419.025 5.13291C418.869 5.12877 415.768 5.13882 415.357 5.12253C415.112 5.11285 416.482 5.08685 416.371 5.07156C416.273 5.06067 412.4 5.0425 412.179 5.09567C413.13 5.07433 415.803 5.09297 414.401 5.13779C414.221 5.14335 413.287 5.10906 413.068 5.11612C411.035 5.18127 417.109 5.16563 418.049 5.16617C414.234 5.23392 408.332 5.15405 403.911 5.19822C402.125 5.15396 406.56 5.13051 404.538 5.09384C400.346 5.01784 403.423 5.15504 403.293 5.16068C402.251 5.20533 398.704 4.96603 398.702 5.14816C397.182 5.12075 397.674 5.09778 395.529 5.12161C395.811 5.13423 396.093 5.14684 396.375 5.15946C393.994 5.26496 388.953 4.99879 389.33 4.97848C390.346 4.92414 392.971 5.0089 393.196 5.00686C393.528 5.00385 394.445 4.81902 398.077 4.98428C399.564 4.86032 392.32 4.90061 395.616 4.81612C393.39 4.82999 384.233 4.74371 382.915 4.79812C382.758 4.80522 383.49 4.92873 381.228 4.86587C380.154 4.83593 382.744 4.83449 382.252 4.80636C380.74 4.72 360.173 4.77524 356.266 4.7798C356.012 4.77994 356.105 4.74161 355.856 4.74196C355.09 4.74303 352.301 4.80019 350.931 4.78255C353.769 4.85351 348.257 4.85902 346.854 4.85122C344.726 4.83933 344.858 4.77187 343.938 4.75753C340.394 4.70223 334.903 4.86239 332.15 4.71266C332.301 4.86126 327.388 4.63981 325.153 4.6385C323.403 4.63744 320.863 4.73577 323.226 4.79567C320.204 4.78883 317.023 4.81655 314.189 4.82558C313.72 4.8271 314.365 4.78316 313.566 4.78713C313.493 4.78781 313.393 4.83087 312.707 4.83535C307.04 4.87288 309.797 4.78137 308.737 4.75447C308.144 4.73941 307.706 4.73192 307.384 4.72945C310.687 4.72103 314.497 4.70412 315.516 4.7029C314.647 4.6078 308.195 4.72116 306.306 4.69557C306.24 4.69464 306.468 4.64223 306.402 4.64186C306.401 4.64186 306.399 4.64186 306.398 4.64186C305.69 4.63784 301.18 4.65719 302.108 4.71968C302.357 4.73638 304.433 4.73635 306.895 4.73067C306.229 4.74239 306.726 4.8011 306.609 4.80361C305.183 4.83263 301.69 4.77533 300.45 4.7676C300.167 4.7659 300.187 4.80352 300.141 4.80361C299.014 4.79507 299.476 4.68766 298.32 4.79842C296.279 4.66456 302.145 4.77855 301.732 4.6916C301.414 4.62467 288.385 4.66062 288.424 4.76607C288.379 4.75479 288.2 4.74079 287.832 4.72487C287.017 4.68948 283.391 4.70056 282.765 4.71999C282.659 4.72381 282.702 4.82616 282.571 4.82711C282.243 4.82946 277.811 4.74921 276.155 4.80971C277.049 4.82406 277.943 4.8384 278.837 4.85274C273.438 4.85363 274.273 4.88409 276.071 4.9147C276.161 4.91497 276.249 4.91886 276.335 4.91927C277.729 4.9419 279.517 4.96369 279.544 4.97177C279.646 5.00258 270.486 5.01972 272.248 4.92477C272.494 4.91179 276.732 4.95407 274.633 4.88631C274.266 4.87444 271.544 4.89378 271.401 4.88631C270.445 4.83666 276.388 4.7707 275.662 4.70015C274.219 4.76732 272.368 4.73194 270.714 4.74929C269.961 4.75712 269.776 4.80844 269.683 4.80941C268.295 4.8228 269.074 4.769 268.611 4.77034C268.362 4.77127 265.627 4.88578 266.144 4.72792C257.132 4.84405 263.651 4.84393 269.179 4.83504C267.432 4.89254 264.008 4.86473 262.471 4.87807C261.919 4.88292 262.246 4.93559 261.315 4.94613C259.398 4.9678 250.245 4.90729 247.861 4.89303C249.325 4.87442 248.897 4.81704 247.767 4.821C246.636 4.825 247.586 4.90158 247.365 4.90981C247.129 4.91834 241.826 4.88219 240.943 4.89211C244.936 4.86437 244.035 4.80716 240.646 4.80117C241.136 4.78469 241.626 4.76821 242.116 4.75173C240.13 4.77489 235.954 4.6876 234.806 4.71358C234.626 4.71775 235.273 4.76586 235.172 4.76821C234.165 4.78865 230.738 4.73958 230.579 4.756C230.444 4.76966 231.905 4.81 231.363 4.82985C231.25 4.83404 229.841 4.76901 228.453 4.78499C227.938 4.79087 228.248 4.83637 228.118 4.83901C227.037 4.8609 227.675 4.78428 225.7 4.79659C224.252 4.8057 223.174 4.88061 221.174 4.8558C227.742 4.95128 222.221 4.9114 219.474 4.94033C219.034 4.94495 219.411 5.02755 216.782 4.98733C222.378 4.83798 215.186 4.90839 213.715 4.90676C213.634 4.90625 213.607 4.85178 212.885 4.85091C212.824 4.85096 212.912 4.88777 212.241 4.89059C205.881 4.9172 209.948 4.87562 208.74 4.83932C208.225 4.82385 205.133 4.8759 204.3 4.87716C204.108 4.87729 204.196 4.83904 203.455 4.84054C202.144 4.84328 200.969 4.884 200.104 4.88723C200.003 4.88742 199.999 4.82707 198.359 4.84664C197.897 4.85211 197.38 4.87354 198.035 4.89089C200.207 4.94796 204.328 4.84919 206.783 4.90615C209.022 4.95803 201.962 4.96292 201.595 4.96322C201.46 4.96341 202.839 4.93344 201.438 4.92751C200.242 4.92258 198.055 5.02682 196.272 5.00412C196.136 5.00243 194.712 4.91405 194.778 4.9089C194.837 4.90513 197.025 4.88595 196.707 4.86037C196.669 4.85746 195.279 4.85805 195.097 4.83901C194.875 4.81583 194.276 4.58836 193.979 4.58265C193.217 4.56856 193.713 4.62044 193.22 4.61683C192.163 4.60922 188.498 4.54195 188.379 4.6208C188.984 4.62548 189.59 4.63016 190.195 4.63484C186.826 4.64295 188.262 4.67651 187.785 4.6913C187.271 4.7073 187.416 4.63799 186.28 4.63148C186.033 4.63005 181.281 4.64452 181.367 4.6736C183.995 4.62732 183.021 4.71296 183.142 4.71449C183.603 4.72007 184.191 4.67203 184.808 4.67299C189.153 4.68051 184.771 4.75634 185.797 4.77584C186.15 4.7824 186.853 4.74139 187.003 4.74349C187.49 4.75028 187.498 4.80399 187.823 4.79964C188.58 4.78956 187.696 4.71357 187.756 4.70961C188.433 4.66205 191.086 4.72123 189.434 4.80391C190.426 4.83371 190.542 4.73322 191.328 4.77339C192.892 4.85295 190.55 4.83251 189.915 4.84572C187.639 4.89337 186.964 4.8548 183.742 4.868C182.582 4.87266 181.207 4.92148 180.669 4.92416C180.33 4.92584 177.128 4.756 177.034 5.02182C175.789 4.9961 173.836 4.82093 172.554 4.82894C171.403 4.83625 171.769 4.93029 171.661 4.93392C171.497 4.93964 170.105 4.93223 169.634 4.94552C169.082 4.96122 169.357 4.99712 168.482 5.01175C166.303 5.04805 166.36 4.95206 166.136 4.94583C163.537 4.87372 164.675 5.01025 164.098 5.02121C163.562 5.03127 156.037 4.97872 154.453 5.01327C155.097 4.99405 155.742 4.97482 156.386 4.95559C155.233 4.89572 154.01 4.99338 153.989 4.88601C153.755 5.05935 151.374 4.94348 150.658 4.94796C150.377 4.94981 150.399 4.97934 150.046 4.98062C148.668 4.9858 145.561 4.96228 144.814 4.97726C141.581 5.04174 149.847 5.14901 150.498 5.15549C149.195 5.15358 141.825 5.1924 145.213 5.27573C145.736 5.28859 146.664 5.21102 146.958 5.20798C148.949 5.18801 147.384 5.25752 147.54 5.26414C147.805 5.27481 149.115 5.20761 149.461 5.21561C149.576 5.21818 148.833 5.28112 150.732 5.28245C149.798 5.34347 144.462 5.29375 143.762 5.30808C143.513 5.3132 145.076 5.44359 140.509 5.31693C140.562 5.32904 140.615 5.34115 140.668 5.35325C138.125 5.35824 135.583 5.36322 133.04 5.36821C133.316 5.34031 134.744 5.28429 132.946 5.29618C131.911 5.30306 132.677 5.36518 132.582 5.36698C131.653 5.38408 115.211 5.36341 112.025 5.37034C110.941 5.37259 107.919 5.42252 107.689 5.42344C106.312 5.42844 101.433 5.39595 100.46 5.403C99.8526 5.40752 100.43 5.45945 99.8875 5.45701C99.3829 5.45468 99.9056 5.40449 99.7558 5.40239C98.5144 5.3842 89.0844 5.45003 86.8451 5.40269C88.2137 5.4169 95.0433 5.31662 94.9059 5.28123C94.8762 5.27637 93.2164 5.23819 92.874 5.25681C92.3083 5.21335 90.3661 5.34567 89.3098 5.31968C89.1903 5.31673 89.6608 5.24251 87.7754 5.22904C87.1259 5.22444 85.4252 5.28229 83.7136 5.21744C81.2357 5.2486 68.2078 5.15235 67.3139 5.23209C67.2875 5.2363 69.122 5.26376 67.8826 5.29649C66.2348 5.33999 67.7146 5.19346 65.7942 5.18082C65.5048 5.1789 60.1618 5.19373 59.9869 5.20279C58.3687 5.28503 63.0374 5.31836 62.9721 5.32792C62.8093 5.35199 58.93 5.36656 58.7723 5.36088C58.6222 5.35497 61.786 5.24601 57.9842 5.28733C58.4197 5.30035 58.8553 5.31337 59.2908 5.32639C57.5028 5.35175 57.3324 5.27637 56.8993 5.27177C55.5528 5.25719 54.096 5.37169 51.9386 5.23026C51.3682 5.19273 52.3152 5.15105 52.2438 5.14542C51.5585 5.0949 50.6842 5.23004 49.6538 5.12924C49.5762 5.12173 51.9743 5.06134 47.7828 5.06119C48.0713 5.07085 48.3598 5.08052 48.6482 5.09018C48.0572 5.11176 43.8133 5.12458 43.2423 5.11948C41.5744 5.10457 43.029 5.03519 41.3525 5.04349C42.4278 5.13856 37.3299 5.15097 37.6232 5.06912C36.9112 5.17192 32.5806 5.09262 30.5449 5.09018C29.2604 5.08872 26.6403 5.13357 26.2322 5.12833C25.7351 5.1219 25.8861 5.05177 24.9884 5.03616C24.7324 5.03171 22.06 5.08311 19.7142 5.01053C19.2596 4.99654 18.3048 4.87759 19.1498 4.84786C20.5961 4.79699 23.3321 4.89281 23.2972 4.82253C23.2562 4.74734 19.571 4.79206 18.5791 4.78225C13.9996 4.73686 16.644 4.65693 16.5262 4.6327C16.2208 4.57391 13.7186 4.57573 13.6142 4.57045C13.1815 4.54696 14.9546 4.50043 14.9814 4.46455C15.0137 4.41782 12.6018 4.3335 13.1501 4.31775C13.935 4.29538 16.1516 4.36566 16.2921 4.36231C18.1215 4.31698 15.6139 4.20903 14.9229 4.156C14.7134 4.13969 15.5481 4.11287 15.3744 4.10809C12.7229 4.03548 14.8155 4.25979 13.0519 4.24481C11.4784 4.23146 13.5029 4.16052 13.4428 4.15661C13.3651 4.15231 11.4838 4.14845 11.1893 4.12335C11.0441 4.11078 15.934 3.9728 15.7298 3.91094C14.1696 3.92457 12.6094 3.9382 11.0492 3.95183C10.9269 3.87117 13.171 3.93055 13.4031 3.92223C13.8704 3.90554 12.5674 3.86472 12.6233 3.83922C12.6534 3.82299 14.1826 3.76511 12.801 3.74125C12.3262 3.73301 11.3298 3.78957 9.60054 3.73179C15.6187 3.658 11.4482 3.61265 11.2708 3.58408C11.0971 3.55551 13.9701 3.48826 10.4827 3.50015C10.3315 3.34317 10.5579 3.45053 11.5489 3.42294C12.7628 3.38903 9.95713 3.33733 14.394 3.37655C14.1416 3.30306 10.5754 3.30826 10.3866 3.30239C10.2235 3.29708 11.0162 3.26093 10.7336 3.24868C7.39038 3.10666 9.68665 3.17151 8.71837 3.08083C8.63226 3.07272 5.47241 3.0391 7.87801 3.02589C12.2606 3.00188 14.0923 3.10603 14.8288 2.88337C11.5871 2.78665 7.65933 2.93037 6.6739 2.93281C5.16558 2.93632 6.72806 2.89091 6.5422 2.87818C6.47765 2.87407 5.17787 2.87782 5.16041 2.87421C4.23359 2.70439 10.9467 2.8714 13.0603 2.84186C12.4937 2.81643 11.9272 2.791 11.3607 2.76557C12.1293 2.76455 12.8979 2.76353 13.6665 2.76252C10.0049 2.71139 13.5374 2.74316 14.4504 2.60565C14.6554 2.57475 12.2499 2.62774 14.9939 2.54186C12.97 2.52204 13.6156 2.49395 11.783 2.53271C11.8303 2.47759 15.9535 2.41542 17.5798 2.38713C11.8345 2.3252 15.1109 2.52737 10.1441 2.4204C9.22303 2.48865 11.5937 2.47536 11.4004 2.48663C10.7068 2.52713 9.08089 2.46282 7.11917 2.60473C6.79975 2.62803 8.15133 2.69975 6.15129 2.69629C5.93007 2.6958 4.65566 2.63451 4.67333 2.63006C4.84228 2.58206 6.1034 2.60005 6.15547 2.58001C6.20433 2.56105 4.79734 2.57245 4.79249 2.5672C4.74925 2.50706 5.96642 2.54421 5.78964 2.52538C5.40786 2.48444 0.346956 2.35503 6.95193 2.39293C1.46579 2.46092 6.24954 2.45934 8.38599 2.43322C8.93082 2.42667 9.0688 2.39075 9.84513 2.37828C10.8437 2.36214 12.0125 2.37938 12.5293 2.37279C13.085 2.36552 9.9273 2.28062 14.4943 2.30596C12.17 2.2215 8.06445 2.31154 5.78128 2.25224C1.17489 2.13241 8.99305 2.10668 9.8075 2.09507C10.0245 2.09192 9.29703 2.04341 9.44167 2.04044C9.6782 2.03588 14.1153 2.05831 14.5528 2.01816C14.9892 1.97806 12.9276 2.02001 12.7906 1.97818C12.6977 1.95002 18.0504 1.90008 15.1528 1.88083C13.1556 1.86764 9.47433 1.98082 8.85425 1.85916C11.7913 1.84909 14.7284 1.83902 17.6655 1.82895C16.058 1.78266 14.4504 1.73637 12.8428 1.69009C16.1394 1.67541 18.9893 1.72766 22.1203 1.6614C14.5967 1.51308 24.5631 1.54303 24.6728 1.52498C24.7094 1.51419 21.7481 1.3938 21.2716 1.37178C23.8957 1.32546 31.8693 1.30283 27.2043 1.15418C28.051 1.18774 30.1016 1.10489 30.0745 1.09863C29.8141 1.03296 25.3419 1.07555 26.0713 1.01623C26.9165 0.947401 28.101 1.04078 29.4014 1.03332C36.0742 0.994447 34.2435 0.651608 40.9344 0.705858C40.8013 0.69365 40.6683 0.681443 40.5352 0.669235C47.8079 0.688666 55.0806 0.708096 62.3533 0.727526C65.1987 0.62283 72.7716 0.559077 76.4911 0.57066C77.2401 0.572916 80.9171 0.627863 81.1946 0.637496C81.7085 0.655958 78.883 0.663002 80.1598 0.697618C80.4294 0.704723 86.6548 0.72781 86.2096 0.669235C85.512 0.662444 83.3288 0.691888 82.9715 0.678086C80.4615 0.579572 99.6537 0.658274 100.605 0.618574C100.179 0.599551 99.7544 0.580528 99.3293 0.561504C100.54 0.570863 101.751 0.580222 102.963 0.589581ZM47.3124 5.29404C46.5856 5.35282 44.764 5.30868 43.6876 5.32517C42.2005 5.34828 39.6725 5.5746 40.7609 5.34776C42.9448 5.32985 45.1286 5.31195 47.3124 5.29404ZM79.2296 5.38163C77.7651 5.35006 78.901 5.22337 80.1013 5.27604C80.2344 5.28202 81.2109 5.42412 79.2296 5.38163ZM63.8772 5.32151C63.9389 5.31983 65.2044 5.32319 65.2486 5.32517C66.3835 5.37604 62.5681 5.36564 63.8772 5.32151ZM138.04 5.25651C136.427 5.26198 137.595 5.37715 138.599 5.32975C138.662 5.32674 138.147 5.25624 138.04 5.25651ZM136.893 5.25345C135.64 5.15032 133.116 5.35934 135.122 5.3383C135.317 5.33617 136.951 5.25848 136.893 5.25345ZM74.0097 5.33128C74.1745 5.29175 75.6851 5.31084 76.3301 5.32029C76.3126 5.35638 74.6423 5.32686 74.0097 5.33128ZM112.309 5.32029C112.373 5.28922 107.123 5.29093 106.765 5.33189C107.594 5.31451 112.249 5.34822 112.309 5.32029ZM125.774 5.27665C125.641 5.27128 123.827 5.27944 123.88 5.30686C124.765 5.34283 126.373 5.30097 125.774 5.27665ZM152.536 5.27848C152.634 5.27159 151.276 5.0971 154.494 5.21195C154.967 5.22877 153.279 5.27436 153.447 5.28062C153.799 5.29283 154.077 5.29852 154.3 5.29954C152.801 5.314 151.244 5.3208 151.093 5.31022C150.386 5.26023 152.492 5.28135 152.536 5.27848ZM166.586 5.14847C166.895 5.12001 168.867 5.13523 169.316 5.14694C169.393 5.14915 169.057 5.22395 169.945 5.21836C170.658 5.21374 169.593 5.13713 170.982 5.14939C172.386 5.16169 170.51 5.21629 170.633 5.22019C170.797 5.2253 172.969 5.19089 172.901 5.23545C172.851 5.26845 170.524 5.24614 169.949 5.25315C169.213 5.26216 170.106 5.31715 168.875 5.30534C168.101 5.29796 168.53 5.20127 168.367 5.19638C168.23 5.19245 165.526 5.24809 166.59 5.14878C166.589 5.14867 166.587 5.14857 166.586 5.14847ZM154.706 5.29527C154.593 5.29853 154.46 5.30027 154.3 5.29954C154.436 5.29823 154.572 5.2967 154.706 5.29527ZM51.5435 5.25162C52.3047 5.28144 50.0453 5.31968 49.1897 5.28062C49.1749 5.24911 51.4223 5.24698 51.5435 5.25162ZM156.096 5.21653C158.323 5.24075 156.685 5.27406 154.706 5.29527C155.334 5.27707 155.348 5.20844 156.096 5.21653ZM92.874 5.25681C92.9679 5.26402 93.0274 5.27527 93.035 5.29374C92.7881 5.27354 92.766 5.26268 92.874 5.25681ZM98.0688 5.28977C99.8496 5.2335 96.2314 5.23577 96.2543 5.27604C96.2651 5.29124 97.9975 5.29201 98.0688 5.28977ZM140.11 5.262C139.947 5.25649 142.478 5.08658 138.803 5.21409C140.765 5.23411 138.696 5.25261 138.726 5.26749C138.806 5.31026 142.1 5.26915 142.83 5.28764C143.401 5.21112 140.648 5.28014 140.114 5.262C140.113 5.262 140.111 5.262 140.11 5.262ZM191.907 5.18967C191.461 5.23451 190.045 5.22008 189.089 5.21744C189.536 5.1726 190.952 5.18703 191.907 5.18967ZM441.954 5.19608C435.406 5.23753 434.558 5.05494 440.549 5.12711C440.666 5.12862 442.351 5.17757 441.954 5.19608ZM385.762 5.14878C385.145 5.06919 387.187 5.0564 388.528 5.08926C388.831 5.09666 389.953 5.17727 388.672 5.19303C388.713 5.09657 386.732 5.05972 385.762 5.14878ZM157.354 5.16556C158.003 5.11249 159.999 5.15027 161.05 5.15824C160.408 5.20194 158.284 5.18217 157.354 5.16556ZM420.439 5.10086C419.749 5.09483 419.282 5.16407 419.402 5.16983C419.935 5.19626 421.225 5.14028 420.439 5.10086ZM150.911 5.15732C150.82 5.12561 153.464 5.09508 153.648 5.1735C153.083 5.16782 150.977 5.17722 150.911 5.15732ZM190.105 5.16587C189.695 5.14974 191.821 5.12087 192.464 5.13687C192.412 5.17063 190.374 5.17635 190.105 5.16587ZM409.328 5.12436C408.71 5.11835 407.166 5.11651 406.995 5.1445C406.782 5.17949 409.046 5.16757 409.328 5.12436ZM524.316 5.06393C524.393 5.07651 522.002 5.16713 520.939 5.1442C518.921 5.10032 524.231 5.05505 524.316 5.06393ZM426.971 5.06515C428.92 5.131 426.756 5.06723 426.842 5.13657C428.153 5.13907 431.415 5.14249 429.172 5.07431C428.736 5.06112 427.583 5.06964 426.971 5.06515ZM425.173 5.04196C424.964 5.06442 423.56 5.13523 424.774 5.13016C425.336 5.12771 426.24 5.04903 425.173 5.04196ZM509.5 5.09476C507.754 5.03337 515.761 5.06631 515.991 5.07706C516.113 5.08273 516.193 5.08809 516.238 5.09262C516.532 5.07317 518.045 5.06966 518.22 5.11887C517.766 5.1148 516.528 5.11913 516.384 5.11368C516.322 5.11136 516.276 5.10918 516.244 5.10696C515.711 5.14968 509.835 5.1064 509.5 5.09476ZM496.232 5.03158C498.231 4.94103 498.585 5.09499 498.413 5.09995C496.237 5.16296 497.656 5.04941 497.589 5.0441C497.437 5.03525 495.891 5.08793 496.239 5.03158C496.236 5.03158 496.234 5.03158 496.232 5.03158ZM506.781 5.06943C506.863 5.06742 508.541 5.07218 508.61 5.07462C509.985 5.12636 505.237 5.11311 506.781 5.06943ZM177.176 5.04074C178.377 5.05604 177.199 5.11269 176.4 5.09232C176.335 5.09031 176.116 5.02722 177.176 5.04074ZM424.214 5.05722C423.935 5.04652 416.81 5.00615 417.238 5.09171C417.843 5.08161 425.942 5.12564 424.214 5.05722ZM370.964 5.03647C372.22 5.03713 370.85 5.11781 370.18 5.08774C369.931 5.07657 370.647 5.03635 370.964 5.03647ZM147.347 5.08408C146.043 5.1284 146.312 4.97969 147.443 5.03067C147.488 5.03266 147.398 5.08234 147.347 5.08408ZM381.002 5.08285C376.669 5.13175 377.695 4.87595 383.329 4.96231C383.152 4.9737 382.976 4.98509 382.8 4.99649C389.303 5.03486 383.245 5.01452 381.652 5.02884C381.047 5.03428 381.554 5.07698 381.006 5.08316C381.005 5.08306 381.003 5.08296 381.002 5.08285ZM364.356 5.03158C360.182 4.85002 368.149 4.96826 370.435 4.94461C368.22 5.01958 365.335 5.00823 369.258 5.08499C363.522 5.09983 365.91 5.02752 365.681 5.02151C365.41 5.01477 364.534 5.03938 364.356 5.03158ZM375.364 5.03036C375.605 5.02507 377.423 5.06203 378.077 5.056C377.162 5.11802 373.762 5.06638 375.364 5.03036ZM482.322 5.0737C482.473 5.0251 482.847 4.98931 484.281 5.00747C483.838 5.03189 482.922 5.05289 482.322 5.0737ZM45.9327 5.0383C44.9448 5.03481 42.9777 5.0165 43.581 5.0676C43.647 5.07195 45.9297 5.06698 45.9327 5.0383ZM403.518 5.01785C403.308 5.01188 397.875 5.00786 399.751 5.06149C400.317 5.07766 405.261 5.0708 403.518 5.01785ZM431.656 5.02395C431.201 5.02345 429.354 5.0326 429.315 5.0441C429.19 5.08383 431.457 5.06199 431.656 5.02395ZM40.9491 4.98855C40.819 4.98351 37.8015 4.99244 38.1332 5.01602C38.7629 5.06061 41.395 5.00592 40.9491 4.98855ZM181.547 4.9269C181.799 4.92511 182.133 4.97789 182.22 4.97848C182.425 4.97923 187.043 4.95893 185.279 5.0267C184.984 5.03806 178.341 5.01203 177.477 5.00534C177.143 4.93287 179.981 5.00181 180.671 4.99435C180.793 4.99293 180.871 4.93231 181.545 4.92721C181.546 4.92711 181.546 4.92701 181.547 4.9269ZM489.796 5.02243C490 4.97636 495.428 4.94585 495.365 5.00168C493.509 5.00859 491.652 5.01551 489.796 5.02243ZM487.038 5.0148C485.88 4.98221 488.593 4.97143 489.392 4.98581C489.401 5.0168 487.207 5.01956 487.038 5.0148ZM421.36 4.85183C420.815 4.86309 422.492 4.93032 422.117 4.94338C421.877 4.95152 420.658 4.92633 420.269 4.94735C420.159 4.95403 421.402 5.01722 421.762 5.01449C422.273 5.01085 421.777 4.96112 422.335 4.96078C424.185 4.95971 425.826 4.99518 427.561 4.99435C427.717 4.99418 426.502 4.95906 427.839 4.95956C428.045 4.95957 429.286 5.01187 430.885 5.00412C434.415 4.84213 437.007 5.00118 441.487 4.94277C441.318 4.92752 437.968 4.88661 437.771 4.88509C434.026 4.85846 427.317 4.85553 423.394 4.85519C422.388 4.85505 422.877 4.88933 422.443 4.89059C422.101 4.89151 422.508 4.82803 421.36 4.85183ZM46.4574 5.0032C45.9866 4.93979 44.3349 4.97993 43.2799 4.97665C43.6513 5.03385 45.4265 4.98915 46.4574 5.0032ZM462.668 4.96566C462.139 4.96811 460.5 4.94901 460.364 4.9681C460.19 4.99304 462.556 5.00876 462.668 4.96566ZM207.582 4.94491C207.633 4.94318 208.905 4.94658 208.953 4.94857C210.09 4.99946 206.274 4.98904 207.582 4.94491ZM238.013 4.95712C238.977 4.94929 239.95 4.92948 240.274 4.98092C239.66 4.97304 237.899 4.99295 238.013 4.95712ZM279.995 4.95559C279.796 4.88822 282.7 4.93185 283.248 4.93789C283.045 4.96783 280.141 5.00414 279.995 4.95559ZM482.113 4.8622C483.888 4.86619 483.514 4.76414 484.641 4.81032C484.825 4.81813 485.419 5.03064 483.468 4.95101C483.117 4.9367 484.49 4.8862 482.113 4.8622ZM384.246 4.96444C384.698 4.91987 386.109 4.9331 387.062 4.93667C386.849 4.96978 384.925 4.96126 384.246 4.96444ZM35.4992 4.93759C34.6667 4.87466 30.8201 4.92134 31.772 4.96292C31.9073 4.96834 34.9596 4.93521 35.4992 4.93759ZM161.868 4.96231C163.45 4.91276 160.172 4.89741 159.137 4.94583C159.606 4.94265 161.761 4.96557 161.868 4.96231ZM269.911 4.91897C269.987 4.91694 271.665 4.92172 271.74 4.92416C273.115 4.9759 268.367 4.96265 269.911 4.91897ZM228.005 4.87533C228.61 4.83455 232.585 4.86745 233.476 4.90829C232.619 4.96791 227.255 4.92626 228.005 4.87533ZM474.809 4.8912C476.076 4.88909 477.277 4.90164 478.44 4.91927C478.196 4.9536 474.943 4.91684 474.809 4.8912ZM276.071 4.9147C276.161 4.91497 276.249 4.91886 276.335 4.91927C276.245 4.91782 276.157 4.91616 276.071 4.9147ZM446.465 4.86709C445.404 4.85353 445.624 4.91643 445.689 4.91836C446.488 4.93873 447.666 4.88239 446.465 4.86709ZM45.245 4.90981C44.8771 4.85305 43.0922 4.89708 42.0654 4.88357C42.3633 4.9284 44.4179 4.91577 45.245 4.90981ZM359.886 4.91531C358.553 4.85376 363.978 4.78226 365.121 4.82192C365.205 4.85995 360.081 4.92373 359.886 4.91531ZM156.953 4.87716C156.846 4.83268 154.569 4.88636 155.053 4.90737C155.359 4.92075 157.017 4.90479 156.953 4.87716ZM367.849 4.84786C368.358 4.83429 369.547 4.87818 369.128 4.90493C368.591 4.93922 367.717 4.85175 367.849 4.84786ZM413.578 4.81215C413.355 4.80536 410.358 4.85101 411.596 4.89639C412.455 4.92792 412.592 4.86362 412.794 4.86343C413.02 4.86363 417.83 4.94232 413.578 4.81215ZM329.504 4.87655C330.634 4.85944 332.001 4.8793 333.185 4.87807C332.703 4.90558 329.985 4.91309 329.504 4.87655ZM165.737 4.86526C165.462 4.84727 157.982 4.83643 162.231 4.89181C162.479 4.89494 166.571 4.91974 165.737 4.86526ZM482.113 4.8622C481.89 4.8617 481.631 4.85958 481.332 4.85519C481.629 4.85692 481.888 4.85993 482.113 4.8622ZM461.953 4.85549C462.362 4.82311 460.303 4.81445 459.695 4.83169C459.508 4.87125 461.897 4.86002 461.953 4.85549ZM333.275 4.83291C333.957 4.81438 335.194 4.83415 336.038 4.83199C335.895 4.86209 333.57 4.86349 333.275 4.83291ZM285.393 4.79903C286.747 4.81692 288.413 4.80869 288.439 4.77187C288.467 4.77762 288.532 4.78373 288.641 4.78988C288.751 4.79596 290.202 4.77883 290.832 4.7914C294.605 4.86606 276.263 4.83525 286.894 4.73128C286.393 4.75386 285.893 4.77645 285.393 4.79903ZM222.627 4.78865C221.858 4.74383 219.706 4.8 220.265 4.81765C220.653 4.82974 223.396 4.83378 222.627 4.78865ZM252.198 4.7621C251.969 4.7541 249.867 4.7855 249.813 4.8091C251.021 4.83398 253.245 4.79927 252.198 4.7621ZM216.719 4.73616C216.237 4.7294 215.621 4.80168 215.678 4.80483C216.168 4.83121 217.529 4.77641 216.719 4.73616ZM478.436 4.6675C477.719 4.6468 475.431 4.69911 474.933 4.74684C474.84 4.73761 474.59 4.72558 474.132 4.71114C474.133 4.71114 474.135 4.71114 474.136 4.71114C473.518 4.69186 455.027 4.67079 467.43 4.76271C467.818 4.76566 467.288 4.72281 468.868 4.73036C468.973 4.73091 469.025 4.76589 469.347 4.7676C470.089 4.77129 474.042 4.79331 474.836 4.76515C474.843 4.77164 474.895 4.77781 475.004 4.78347C475.978 4.83391 478.993 4.68345 478.436 4.6675ZM256.365 4.75569C255.942 4.74273 254.603 4.75504 254.464 4.78591C255.128 4.80104 257.346 4.78593 256.365 4.75569ZM165.505 4.7386C164.643 4.71322 162.46 4.76068 163.12 4.78591C163.524 4.80143 166.499 4.76775 165.505 4.7386ZM242.956 4.77217C247.897 4.80866 244.136 4.76922 244.892 4.72395C244.247 4.74003 243.602 4.7561 242.956 4.77217ZM501.302 4.78438C500.514 4.77397 501.44 4.68464 502.307 4.73311C502.579 4.7485 501.742 4.79004 501.302 4.78438ZM536.875 4.75661C536.203 4.6774 539.487 4.72394 538.207 4.77828C538.147 4.78011 536.923 4.75962 536.875 4.75661ZM512.017 4.72426C511.483 4.77819 511.134 4.78459 509.628 4.77126C511.858 4.75607 509.79 4.70837 512.017 4.72426ZM288.424 4.76607C288.433 4.76825 288.44 4.76986 288.439 4.77187C288.429 4.76989 288.425 4.76801 288.424 4.76607ZM212.074 4.7502C211.456 4.70452 209.722 4.70788 210.239 4.75386C210.289 4.75812 211.821 4.78396 212.074 4.7502ZM474.933 4.74684C475.015 4.75503 474.973 4.76032 474.836 4.76515C474.83 4.75905 474.865 4.75329 474.933 4.74684ZM221.381 4.71297C221.319 4.74705 223.957 4.76031 224.063 4.7563C225.577 4.69719 222.47 4.71092 221.381 4.71297ZM148.062 4.69069C147.926 4.69425 148.804 4.78223 149.341 4.74776C149.758 4.72101 148.572 4.67715 148.062 4.69069ZM517.133 4.70229C517.968 4.70235 519.144 4.70231 519.361 4.7441C518.801 4.73768 517.116 4.73295 517.133 4.70229ZM535.589 4.69923C534.602 4.74837 532.347 4.74823 530.907 4.74013C530.88 4.67546 534.663 4.71444 535.589 4.69923ZM480.702 4.6916C480.634 4.68897 478.539 4.66968 478.825 4.71297C479.243 4.77645 481.293 4.71515 480.702 4.6916ZM152.13 4.73738C153.067 4.70757 150.911 4.61595 149.923 4.68672C149.415 4.72296 151.972 4.74238 152.13 4.73738ZM206.662 4.69038C205.426 4.71544 208.49 4.76006 208.918 4.7148C208.348 4.71117 207.101 4.68151 206.662 4.69038ZM248.724 4.64461C244.829 4.51406 246.95 4.75222 247.641 4.73128C247.739 4.72829 248.819 4.64768 248.724 4.64461ZM25.833 4.67665C25.2815 4.69479 27.3375 4.7605 27.6036 4.71724C27.768 4.69017 26.1856 4.66509 25.833 4.67665ZM307.384 4.72945C307.22 4.72987 307.057 4.7303 306.895 4.73067C307.016 4.72854 307.176 4.72784 307.384 4.72945ZM195.44 4.51551C198.183 4.69984 197.895 4.55777 198.133 4.55854C198.648 4.56053 199.845 4.61037 200.815 4.60218C199.703 4.62294 198.592 4.64369 197.481 4.66444C198.359 4.67775 205.986 4.7456 206.146 4.71571C206.374 4.67315 203.975 4.6865 203.905 4.68275C203.804 4.67741 203.429 4.55908 203.206 4.55458C202.84 4.54738 196.462 4.54493 195.44 4.51551ZM240.577 4.66505C241.204 4.67912 241.382 4.72601 241.673 4.7148C241.772 4.71096 241.788 4.66624 242.127 4.65468C241.61 4.65814 241.094 4.66159 240.577 4.66505ZM190.53 4.68123C189.754 4.62658 193.234 4.64733 193.346 4.65346C193.941 4.6905 191.164 4.72587 190.53 4.68123ZM220.064 4.67329C219.937 4.6701 217.264 4.65304 217.286 4.68336C217.993 4.70648 221.566 4.71321 220.064 4.67329ZM242.545 4.65163C243.484 4.65684 245.259 4.70187 245.055 4.63453C245.054 4.63453 245.052 4.63453 245.051 4.63453C244.216 4.64023 243.38 4.64593 242.545 4.65163ZM155.337 4.59517C153.597 4.48792 154.421 4.62343 155.962 4.65803C156.429 4.60988 155.622 4.61262 155.337 4.59517ZM149.768 4.51521C149.284 4.49591 144.295 4.51705 145.056 4.5738C145.327 4.59403 148.195 4.54302 148.328 4.54695C148.528 4.55276 147.613 4.61554 149.143 4.6031C149.053 4.58183 149.934 4.52165 149.768 4.51521ZM153.897 4.5265C152.167 4.44494 151.779 4.59537 153.079 4.59578C153.587 4.59604 154.143 4.53827 153.897 4.5265ZM160.96 4.53932C160.338 4.52505 158.681 4.50424 157.538 4.55427C159.067 4.55854 160.596 4.56282 162.125 4.56709C162.301 4.53875 161.505 4.55185 160.956 4.53932C160.958 4.53932 160.959 4.53932 160.96 4.53932ZM545.981 4.31378C544.607 4.27112 547.773 4.25478 547.906 4.26526C548.304 4.30005 546.595 4.33284 545.981 4.31378ZM15.1005 3.31002C14.7188 3.29302 14.4692 3.23707 13.6289 3.26638C14.4741 3.30768 15.3193 3.34898 16.1646 3.39029C16.8214 3.29565 15.5178 3.32878 15.1005 3.31002ZM11.8729 2.96424C11.9923 2.96195 11.3401 2.81643 12.8826 2.91358C13.9248 2.97918 8.2572 3.04311 7.23414 2.97859C8.36456 2.9486 10.8451 2.98293 11.8729 2.96424ZM1.94528 2.33434C1.87993 2.32273 4.03318 2.30571 4.28241 2.31389C5.5911 2.35701 2.29884 2.39651 1.94528 2.33434ZM8.81453 2.36211C7.8047 2.33385 10.0418 2.31563 10.7085 2.3319C10.7732 2.35898 8.97053 2.36623 8.81453 2.36211ZM532.067 2.20616C530.974 2.10726 529.997 2.32016 531.678 2.27727C531.758 2.27525 532.114 2.211 532.067 2.20616ZM4.05037 2.18754C5.0602 2.2158 2.82312 2.23402 2.15642 2.21776C2.09442 2.1907 3.89662 2.18341 4.05037 2.18754ZM531.298 1.97055C529.846 1.89939 530.357 2.13824 530.539 2.14787C531.286 2.18588 533.847 2.09213 534.371 2.06882C530.537 2.10467 531.981 2.00409 531.298 1.97055ZM524.604 2.11399C523.258 2.13947 526.698 2.18821 527.355 2.12162C526.686 2.12481 524.987 2.10663 524.604 2.11399ZM516.432 2.03739C515.709 2.02884 513.555 2.00835 513.194 2.04594C513.985 2.03913 516.127 2.07606 516.432 2.03739ZM514.794 1.92478C513.662 1.87371 513.391 2.0225 514.695 1.97818C514.746 1.97647 514.835 1.92762 514.794 1.92478ZM508.432 1.87106C507.69 1.81189 506.843 1.95599 508.046 1.95987C508.403 1.96076 508.511 1.87785 508.432 1.87106ZM529.481 1.71359C528.418 1.68818 527.049 1.79137 529.318 1.8027C528.521 1.81847 527.724 1.83424 526.927 1.85001C529.899 1.90785 529.681 1.76474 530.535 1.77066C531.727 1.77906 531.633 1.89716 531.394 1.93424C532.372 1.86189 536.527 1.86073 538.928 1.84695C536.818 1.81659 533.393 1.76395 531.31 1.74472C530.716 1.73915 530.139 1.77153 529.632 1.76791C528.819 1.76193 529.541 1.7153 529.485 1.71359C529.484 1.71359 529.482 1.71359 529.481 1.71359ZM500.07 1.86893C497.889 1.8019 499.268 1.94662 500.501 1.92081C500.554 1.91882 500.125 1.87056 500.07 1.86893ZM1.15718 1.74777C4.07222 1.80826 1.95335 1.88843 8.05151 1.76669C5.48953 1.85287 7.90983 1.82867 7.40974 1.86343C7.00857 1.89094 5.50537 1.86816 6.37915 1.92356C5.23064 1.86326 0.244357 1.87994 0.0220591 1.87015C0.0241496 1.87015 0.0262401 1.87015 0.0283305 1.87015C-0.105183 1.86435 0.226994 1.72853 1.15718 1.74777ZM516.422 1.65896C515.694 1.48336 515.409 1.76207 513.978 1.61654C512.074 1.82787 519.24 1.61657 520.107 1.79507C512.325 1.77433 525.249 1.97195 519.817 1.70474C524.292 1.80172 521.284 1.67164 521.974 1.63759C522.713 1.60133 525.245 1.64074 525.116 1.57534C525.115 1.57534 525.113 1.57534 525.112 1.57534C523.564 1.57991 522.015 1.58449 520.467 1.58907C521.982 1.73016 518.819 1.68785 517.745 1.5729C517.304 1.60158 516.863 1.63027 516.422 1.65896ZM525.185 1.79141C525.033 1.78818 521.665 1.80795 521.882 1.83627C522.332 1.85433 527.112 1.83268 525.185 1.79141ZM540.007 1.76059C538.797 1.76024 536.928 1.73272 536.269 1.78592C537.478 1.78627 539.348 1.81381 540.007 1.76059ZM477.742 1.75051C476.201 1.79417 480.946 1.8071 479.573 1.7554C479.506 1.75296 477.818 1.74848 477.742 1.75051ZM512.916 1.68551C511.349 1.63185 512.09 1.80266 513.251 1.75814C513.318 1.75552 512.989 1.68796 512.916 1.68551ZM3.5194 1.72701C3.62422 1.68517 7.85368 1.71456 8.6034 1.7142C8.17744 1.7531 3.39914 1.77499 3.5194 1.72701ZM542.135 1.60402C539.729 1.45355 536.464 1.62735 536.106 1.62356C535.75 1.61969 536.308 1.55391 536.227 1.55214C536.042 1.54845 532.25 1.55397 532.067 1.55855C531.936 1.56212 532.622 1.65456 531.839 1.68368C533.366 1.63115 540.297 1.66401 540.657 1.65377C540.935 1.64559 538.835 1.54852 542.13 1.60402C542.132 1.60402 542.133 1.60402 542.135 1.60402ZM535.211 1.60341C536.158 1.64216 533.502 1.64701 532.859 1.63271C531.431 1.60071 535.09 1.59882 535.211 1.60341ZM528.823 1.56771C528.519 1.55902 525.782 1.55112 525.549 1.59426C526.845 1.65022 529.511 1.58796 528.823 1.56771ZM498.36 1.57351C497.649 1.57903 495.694 1.54588 495.582 1.58358C496.294 1.57808 498.249 1.6112 498.36 1.57351ZM17.9498 1.39802C16.7687 1.36648 19.5053 1.3536 20.3037 1.36872C20.347 1.39387 18.0504 1.40073 17.9498 1.39802ZM512.651 1.32508C512.23 1.31362 503.641 1.34222 502.437 1.35987C503.615 1.38838 512.127 1.39057 512.513 1.37666C512.626 1.37249 512.705 1.32689 512.651 1.32508ZM531.225 1.30769C532.012 1.25218 532.526 1.31875 532.625 1.31959C533.599 1.32808 535.618 1.31557 535.176 1.36903C533.457 1.34746 529.657 1.41792 531.225 1.30769ZM497.75 1.32234C494.834 1.34294 500.435 1.40142 499.7 1.34339C499.653 1.33989 498.052 1.32017 497.75 1.32234ZM513.61 1.30891C514.253 1.26406 522.845 1.30274 524.224 1.3028C522.988 1.38553 521.992 1.3227 520.333 1.32691C519.885 1.32815 520.005 1.36257 519.957 1.36262C519.182 1.36422 519.762 1.32447 519.284 1.32386C518.982 1.32359 512.705 1.3721 513.61 1.30891ZM531.674 1.26923C532.154 1.23741 537.518 1.22385 537.734 1.23231C539.349 1.2952 532.091 1.28031 531.674 1.26923ZM512.822 1.23536C513.746 1.13921 518.012 1.2036 515.092 1.25153C514.814 1.25589 513.633 1.21422 512.822 1.23536ZM498.061 1.23078C497.918 1.22795 494.878 1.20873 494.823 1.23933C495.263 1.25121 499.694 1.26188 498.061 1.23078ZM499.638 1.12732C499.564 1.12806 500.277 1.18697 498.852 1.17951C498.733 1.17881 498.511 1.11252 496.719 1.13678C496.356 1.14178 495.792 1.18563 495.833 1.18836C497.699 1.29239 503.319 1.09314 499.638 1.12732ZM531.772 1.21552C531.483 1.18754 532.18 1.10449 532.809 1.14655C533.079 1.16471 532.576 1.21455 531.772 1.21552ZM488.42 1.20392C490.188 1.15356 484.639 1.14403 484.356 1.15692C484.535 1.1883 488.244 1.20884 488.42 1.20392ZM20.7155 1.00921C20.7141 1.00921 20.7127 1.00921 20.7113 1.00921C22.1981 1.02063 21.2772 1.06253 21.3468 1.06384C24.5137 1.12539 23.6737 1.03048 24.169 1.01929C25.2309 0.995064 25.0598 1.11047 26.851 1.06262C23.8901 1.13328 26.5853 1.10366 26.6691 1.14472C27.001 1.31227 22.727 1.06626 21.2507 1.10138C21.045 1.10624 22.5637 1.15972 22.0367 1.17493C20.3232 1.22422 15.0105 0.965571 20.7155 1.00921ZM533.294 1.13922C533.984 1.09001 539.215 1.13774 537.828 1.17829C537.605 1.18479 532.28 1.21096 533.294 1.13922ZM288.898 1.06659C290.156 1.024 287.242 0.973927 286.701 1.00708C286.433 1.02359 288.346 1.08528 288.898 1.06659ZM268.466 0.884392C266.972 0.893039 265.397 1.07065 267.256 1.04309C267.453 1.04008 268.638 0.90903 268.466 0.884392ZM366.576 0.975643C365.016 0.91217 365.109 1.0301 366.254 1.02844C366.658 1.02787 366.625 0.977652 366.576 0.975643ZM307.031 0.990903C306.875 0.986786 305.071 0.994316 305.137 1.02142C305.804 1.03768 308.041 1.01916 307.031 0.990903ZM367.071 0.958858C366.146 0.980114 367.738 1.06541 368.869 0.982052C368.295 0.98889 367.166 0.956686 367.071 0.958858ZM509.599 0.974728C508.824 1.02315 506.633 1.00852 505.374 1.01684C505.238 0.954104 508.699 0.986103 509.599 0.974728ZM274.809 0.955806C273.394 1.00002 276.425 1.03623 276.147 0.97778C276.108 0.974605 274.864 0.953921 274.809 0.955806ZM416.91 0.952449C415.882 0.989874 419.146 1.0402 418.248 0.974423C418.203 0.971741 416.966 0.950367 416.91 0.952449ZM431.165 0.974118C430.385 0.961493 427.058 0.965377 428.353 1.00189C428.554 1.0075 431.106 1.0084 431.165 0.974118ZM24.2568 0.974118C23.8365 0.909668 26.276 0.92501 26.6252 0.936274C26.7624 0.940959 24.8049 1.05797 24.2568 0.974118ZM356.443 0.965572C355.636 0.973636 353.543 0.958313 353.174 0.992124C354.161 0.985125 356.709 1.03292 356.443 0.965572ZM281.258 0.955501C280.026 0.885468 277.922 0.89238 278.442 0.983884C280.767 0.977752 278.155 0.901638 281.258 0.955501ZM372.27 0.883477C371.623 0.878134 371.127 0.96601 371.2 0.97015C371.901 1.00954 372.913 0.917667 372.27 0.883477ZM323.694 0.955806C323.657 0.918253 321.582 0.935297 321.859 0.959469C321.95 0.967583 323.724 0.986197 323.694 0.955806ZM482.423 0.953365C481.472 0.919088 484.376 0.885577 485.234 0.925593C485.652 0.983253 482.543 0.957302 482.423 0.953365ZM390.221 0.90545C390.318 0.849719 387.074 0.881229 388.352 0.927424C388.672 0.938983 390.187 0.924085 390.221 0.90545ZM421.271 0.838614C419.095 0.905074 428.23 0.952257 425.83 0.869438C425.658 0.863538 421.46 0.833002 421.271 0.838614ZM436.19 0.88012C435.815 0.872797 436.002 0.685525 437.555 0.75774C437.759 0.767105 436.805 0.81661 436.972 0.827933C437.07 0.834386 440.448 0.860687 440.603 0.856315C440.77 0.851351 440.573 0.791329 440.743 0.784596C440.934 0.777072 443.014 0.829798 444.103 0.830374C446.154 0.831363 446.376 0.781405 446.544 0.781239C447.034 0.780908 447.858 0.81638 448.852 0.816336C453.861 0.815937 461.521 0.77359 465.492 0.879509C461.959 0.836975 458.591 0.882103 455.075 0.89599C456.105 0.791708 449.903 0.976338 453.531 0.85601C451.86 0.882111 437.42 0.902984 436.194 0.88012C436.193 0.88012 436.191 0.88012 436.19 0.88012ZM262.569 0.8319C263.487 0.76796 258.777 0.782342 258.378 0.856315C258.999 0.866581 262.455 0.839147 262.569 0.8319ZM284.297 0.67595C284.735 0.664913 285.15 0.539929 287.444 0.603315C287.446 0.603315 287.448 0.603315 287.45 0.603315C288.12 0.621826 287.356 0.65228 287.479 0.663132C287.524 0.667563 289.615 0.729735 287.878 0.739734C285.229 0.755074 287.629 0.646754 286.216 0.645431C286.044 0.645328 283.37 0.712981 283.526 0.727831C283.542 0.729561 284.346 0.71525 284.479 0.721422C284.981 0.744625 284.737 0.783654 284.807 0.785512C285.039 0.790271 289.266 0.723779 289.881 0.78185C290.081 0.800575 283.142 0.843772 282.872 0.834037C282.701 0.827902 282.773 0.719565 282.596 0.70891C282.505 0.703603 279.714 0.7442 279.351 0.73424C279.246 0.731359 279.166 0.728254 279.107 0.725695C279.529 0.759213 277.001 0.756799 277.079 0.718981C277.123 0.704117 278.863 0.71272 278.925 0.715319C278.952 0.716419 278.976 0.717935 278.998 0.718981C278.638 0.678133 284.528 0.679976 283.256 0.619185C284.964 0.585882 283.014 0.708363 284.297 0.67595ZM292.504 0.609113C292.328 0.620507 292.152 0.631901 291.976 0.643294C294.965 0.615407 298.414 0.670254 301.857 0.669846C302.731 0.669825 301.726 0.600143 302.871 0.619185C303.789 0.634444 304.804 0.699077 304.305 0.713488C304.183 0.717083 302.315 0.674986 301.381 0.679307C298.62 0.692096 299.318 0.751853 299.156 0.753467C298.978 0.755166 297.241 0.713142 296.292 0.715014C293.907 0.71985 292.818 0.756538 289.559 0.708605C291.44 0.669221 290.409 0.583665 292.504 0.609113ZM403.92 0.736377C404.033 0.698764 405.989 0.732135 406.7 0.726611C406.588 0.764316 404.631 0.73085 403.92 0.736377ZM112.434 0.687547C111.834 0.749268 116.337 0.764551 115.15 0.713182C114.887 0.701782 113 0.687986 112.434 0.687547ZM132.664 0.725085C133.266 0.70802 130.841 0.663582 130.845 0.711351C130.849 0.72667 132.586 0.727304 132.664 0.725085ZM331.142 0.669846C331.256 0.667913 332.913 0.68166 332.965 0.6848C334.063 0.750336 328.609 0.712458 331.142 0.669846ZM157.256 0.649093C155.156 0.689548 161.476 0.707083 159.545 0.655502C159.449 0.65299 157.357 0.647127 157.256 0.649093ZM166.04 0.637801C165.537 0.639969 163.302 0.619882 163.272 0.638717C163.228 0.669102 165.786 0.689863 166.04 0.637801ZM372.707 0.650314C372.465 0.58077 375.412 0.633435 376.436 0.624678C376.68 0.69427 373.731 0.641531 372.707 0.650314ZM354.104 0.599042C366.529 0.54422 363.79 0.692804 353.364 0.632918C353.349 0.588304 353.32 0.602495 354.104 0.599042ZM370.015 0.607282C369.563 0.651834 368.152 0.638623 367.199 0.635054C367.37 0.604079 369.327 0.615289 370.015 0.607282ZM107.072 0.592023C107.852 0.535743 111.302 0.605126 110.689 0.62834C110.546 0.633353 106.786 0.622973 107.072 0.592023ZM332.184 0.610334C331.894 0.542701 335.625 0.570289 335.911 0.585309C337.062 0.645725 332.486 0.595407 332.184 0.610334ZM390.342 0.590802C391.001 0.537826 392.872 0.565074 394.076 0.565777C393.528 0.611076 391.363 0.591755 390.342 0.590802ZM381.654 0.549297C381.73 0.547263 383.408 0.552046 383.483 0.554485C384.859 0.606228 380.11 0.592977 381.654 0.549297ZM18.6543 0.500467C18.7102 0.49876 19.9814 0.502138 20.0257 0.504129C21.1602 0.554991 17.3452 0.544598 18.6543 0.500467Z" fill="#090077"/>
</svg>
