<svg width="40" height="6" viewBox="0 0 40 6" fill="none" xmlns="http://www.w3.org/2000/svg">
<path d="M3.05863 5.46007C3.08309 5.45372 3.18147 5.46915 3.22405 5.46648C3.17578 5.53355 2.97041 5.4831 3.05863 5.46007ZM7.42713 0.589581C7.39179 0.606163 7.35646 0.622745 7.32112 0.639327C7.42154 0.650101 7.55651 0.637931 7.6497 0.653671C7.66494 0.656314 7.6254 0.704325 7.66146 0.706468C7.69754 0.708598 7.69058 0.642988 7.74304 0.63597C7.80189 0.628297 8.07134 0.674006 8.16466 0.672898C8.51367 0.668469 8.86568 0.630999 9.21539 0.658249C8.85436 0.706789 9.21816 0.756192 9.31929 0.735156C9.34169 0.730285 9.33811 0.60831 9.70034 0.639022C9.93055 0.658512 9.71793 0.832892 10.1021 0.745532C9.80667 0.623541 10.0972 0.63209 10.3287 0.628035C10.3686 0.627317 10.691 0.645645 10.8334 0.640243C10.8821 0.638364 10.9564 0.574473 11.021 0.572796C11.0655 0.57169 11.0991 0.60662 11.1652 0.604841C11.473 0.596968 11.7758 0.594252 12.0842 0.606062C11.904 0.770246 12.2257 0.676035 12.2402 0.683884C12.3136 0.728462 11.9813 0.741151 12.1127 0.769032C12.2964 0.763945 12.4801 0.758859 12.6637 0.753772C12.513 0.733614 12.8633 0.615513 12.9278 0.669235C12.8994 0.524156 13.7649 0.795507 13.8966 0.747058C13.9241 0.736824 13.7445 0.665121 14.1611 0.697923C14.2063 0.701568 14.1892 0.74534 14.2128 0.74126C14.227 0.738806 14.3128 0.599682 14.4042 0.67656C14.4376 0.704619 14.224 0.795993 14.693 0.759266C14.5062 0.617665 15.3432 0.68258 15.4972 0.718065C15.4664 0.699042 15.4356 0.680019 15.4049 0.660995C15.5571 0.712314 15.5846 0.66417 15.6188 0.666794C15.757 0.677332 15.947 0.72585 16.0758 0.721422C16.2264 0.716328 16.2269 0.628266 16.4025 0.662521C16.3609 0.643091 16.3192 0.623661 16.2775 0.60423C16.3988 0.60891 16.5201 0.61359 16.6414 0.618269C16.3605 0.734839 16.702 0.623831 16.7245 0.621321C16.7603 0.617078 16.7088 0.664802 16.7688 0.658859C16.775 0.657881 16.766 0.61294 16.8585 0.607893C17.0518 0.5975 17.0212 0.654005 17.1024 0.653366C17.1098 0.653074 17.0838 0.612588 17.2239 0.60301C17.6693 0.572518 17.2217 0.634036 17.2046 0.639632C17.1822 0.647013 17.3349 0.816208 16.9565 0.756214C17.0836 0.775313 17.0963 0.850184 17.1107 0.852043C17.1233 0.853571 17.3434 0.843024 17.3555 0.840445C17.4637 0.815021 17.3685 0.763856 17.3896 0.754688C17.4069 0.747296 17.672 0.813973 17.7342 0.66008C17.8611 0.802029 17.6612 0.789024 17.4484 0.810842C17.4174 0.839971 17.651 0.868295 17.6633 0.868218C17.9647 0.867959 17.7978 0.751197 17.8637 0.67656C17.8983 0.637508 18.0211 0.717167 17.9077 0.612471C18.1813 0.601419 18.0154 0.662088 18.0331 0.671066C18.0597 0.684258 18.1554 0.654252 18.1674 0.658249C18.185 0.664166 18.1239 0.700414 18.1932 0.713182C18.2047 0.715039 18.3164 0.652662 18.1724 0.622847C18.3648 0.631714 18.349 0.578525 18.4143 0.685715C18.5468 0.482925 18.5104 0.805583 18.5626 0.816946C18.7014 0.846898 18.6612 0.687681 18.6685 0.679917C18.719 0.630162 19.1032 0.684857 19.1984 0.661911C19.1609 0.776589 18.8938 0.663163 18.8341 0.68541C18.635 0.759427 19.1147 0.742745 18.9701 0.886834C19.0307 0.847261 19.0913 0.807689 19.1519 0.768116C19.2631 0.86076 19.1054 0.901157 19.4045 0.867302C19.4534 0.787338 19.193 0.879932 19.2453 0.816946C19.2761 0.77998 19.4495 0.772041 19.4529 0.752552C19.4564 0.729092 19.2996 0.756895 19.3243 0.720812C19.3782 0.642946 19.95 0.717074 19.5148 0.759571C19.6361 0.75824 19.6987 0.913118 19.804 0.86486C19.872 0.833537 19.4891 0.619634 20.0636 0.658859C20.0759 0.731993 19.8339 0.680455 19.8277 0.686021C19.8188 0.694122 19.8626 0.859156 19.8702 0.867302C19.897 0.894121 20.4837 0.805749 20.6077 0.888665C20.5586 0.793282 21.0511 0.871645 21.1047 0.842582C21.119 0.834558 21.0656 0.776132 21.0809 0.769947C21.1761 0.73314 21.4337 0.837438 21.5532 0.84014C21.6869 0.843202 21.67 0.792741 21.6774 0.792836C21.7363 0.795651 21.6893 0.82986 21.7252 0.829764C21.7796 0.8296 22.153 0.836596 22.1717 0.829459C22.1772 0.827234 22.1163 0.76959 22.1977 0.758655C22.2118 0.756761 22.2028 0.825105 22.4439 0.795583C22.7343 0.760076 22.2423 0.710593 22.3629 0.639022C22.5494 0.740928 22.5434 0.639943 22.594 0.647872C22.6115 0.65076 22.7418 0.73662 22.8833 0.731188C22.7817 0.745125 22.6802 0.759062 22.5786 0.772999C22.6784 0.788054 22.8724 0.76942 22.9547 0.786427C22.9948 0.794706 22.9617 0.86524 23.0489 0.863335C23.0674 0.862546 23.1408 0.690705 22.9124 0.767811C22.8942 0.706452 23.0029 0.746408 23.0533 0.729052C23.0609 0.726348 23.091 0.62384 23.1554 0.687547C23.1708 0.70322 23.0025 1.00224 23.4366 0.785817C23.4506 0.778842 23.402 0.741393 23.4156 0.73363C23.425 0.728373 23.5358 0.743521 23.548 0.738208C23.5606 0.732507 23.507 0.691624 23.5219 0.683579C23.5984 0.642126 23.6987 0.804276 23.5411 0.791921C23.5938 0.811961 23.6465 0.832002 23.6991 0.852043C23.6428 0.729836 23.7819 0.817658 23.8547 0.813894C24.3219 0.789841 24.0091 0.710359 24.0894 0.669235C24.2186 0.603207 24.1199 0.812339 24.3117 0.7495C24.3294 0.743624 24.0976 0.654851 24.5502 0.704942C24.4834 0.708401 24.4166 0.71186 24.3498 0.715319C24.3883 0.83352 24.591 0.70721 24.6066 0.705553C24.7843 0.689323 24.6642 0.731934 24.9281 0.671066C24.9517 0.665602 25.003 0.694773 25.0534 0.680222C25.2623 0.620274 24.7777 0.643845 24.7645 0.59599C24.7582 0.572542 25.2793 0.578447 25.2972 0.589581C25.3732 0.638936 25.061 0.61132 25.1205 0.672592C25.1422 0.694349 25.885 0.649664 26.034 0.673508C26.206 0.701254 26.2834 0.861513 26.2845 0.681443C26.333 0.858197 26.3759 0.737601 26.3979 0.738818C26.6638 0.75518 26.6643 0.756964 26.8923 0.740039C26.9427 0.73636 26.9852 0.78999 27.003 0.780934C27.0134 0.775464 26.994 0.718072 27.0448 0.700364C27.1153 0.67614 27.5393 0.73517 27.5708 0.766895C27.6023 0.798621 27.3917 0.780654 27.4295 0.832816C27.5819 0.838089 27.728 0.825182 27.8814 0.830679C27.9451 0.833119 27.9124 0.869628 27.9399 0.870354C27.9516 0.870803 28.1716 0.838653 28.1623 0.825186C28.1405 0.793872 27.4611 0.814921 27.64 0.751026C27.6745 0.738679 27.7964 0.82281 27.777 0.720507C28.384 0.743701 28.991 0.766895 29.598 0.79009C29.2493 0.866608 28.8568 0.798175 28.4915 0.805349C28.4414 0.806235 28.2722 0.796367 28.2928 0.848075C28.6034 0.861462 28.9896 0.83452 29.2878 0.868218C29.2974 0.869332 29.2624 0.915789 29.2981 0.923151C29.3649 0.936892 29.5826 0.861965 29.6191 0.881341C29.6254 0.885854 29.5016 0.947099 29.5392 0.98602C29.6359 1.0859 29.6604 0.864681 29.7435 0.867302C29.8078 0.869423 30.2397 0.976386 30.3473 0.908807C30.4617 0.836776 30.029 0.866989 30.061 0.808096C30.3537 0.748911 30.6502 0.812112 30.9268 0.804739C30.9317 0.804551 30.8894 0.758399 30.9511 0.751941C31.0585 0.740703 31.0867 0.806168 31.139 0.816641C31.1954 0.827789 31.3948 0.818408 31.4214 0.842277C31.4248 0.845406 31.3844 0.910339 31.3783 0.912165C31.2914 0.938926 31.2606 0.85465 31.2527 0.853569C31.223 0.850373 31.1938 0.882653 31.1667 0.88073C31.1221 0.877524 31.0976 0.84766 31.0387 0.845023C30.9981 0.843093 31.0373 0.900443 30.9982 0.897821C30.9838 0.896626 30.8288 0.765672 30.8143 0.899347C30.8098 0.941494 32.0774 0.995618 32.204 0.96191C32.0954 0.945837 31.9867 0.929764 31.878 0.91369C32.0987 0.952816 32.3638 0.846009 32.3826 1.00403C33.2009 1.01695 34.0193 1.02987 34.8377 1.04278C34.9838 1.05625 34.9037 1.15779 35.1441 1.12824C35.082 1.09589 35.0198 1.06354 34.9577 1.03119C35.0809 1.05388 35.6269 1.09822 35.7153 1.07727C35.7267 1.07453 35.7426 0.982624 35.879 0.974728C36.0001 0.967756 36.0196 1.03661 36.0843 1.0498C36.1386 1.06069 36.1996 1.04265 36.2158 1.04645C36.2281 1.04949 36.233 1.0916 36.2628 1.09894C36.3568 1.12164 36.2806 1.00308 36.3739 1.13922C36.3512 1.14441 36.3285 1.1496 36.3058 1.15479C36.4192 1.17449 36.5742 1.2363 36.4071 1.26679C36.3784 1.27206 36.4031 1.23132 36.3816 1.23139C35.5425 1.23896 36.2126 1.31815 36.5066 1.25489C36.5822 1.31525 37.0054 1.2784 37.0195 1.29029C37.0391 1.30752 36.9666 1.35576 37.0616 1.39741C37.0815 1.40623 37.6475 1.37243 37.4437 1.45265C37.4016 1.4692 37.1303 1.45181 37.0649 1.45418C37.2188 1.58211 37.5795 1.39882 37.6201 1.40352C37.7837 1.42345 37.3057 1.51439 37.6744 1.52925C37.9579 1.54066 37.6917 1.45524 37.8008 1.41878C37.862 1.39832 38.1828 1.49242 38.1741 1.37056C38.2842 1.35754 38.2198 1.42207 38.2334 1.42671C38.2467 1.43079 38.4632 1.39431 38.5335 1.42C38.542 1.42319 38.5151 1.48653 38.524 1.49172C38.5411 1.50059 38.7499 1.48793 38.7583 1.48256C38.7636 1.47883 38.7139 1.42337 38.7343 1.40993C38.7582 1.39442 38.9591 1.40747 38.9702 1.39161C38.9858 1.36765 38.7378 1.38344 38.7791 1.32142C38.8934 1.33704 39.0797 1.29566 39.1552 1.24573C39.1367 1.26001 39.0258 1.26206 38.9874 1.25703C39.0055 1.1662 39.2435 1.16744 39.1621 1.23933C39.2139 1.20072 39.1785 1.18024 39.2077 1.1438C39.2153 1.13457 39.2888 1.13267 39.303 1.11695C39.3048 1.11381 39.229 1.07954 39.2442 1.0611C39.2717 1.02776 39.4945 1.03526 39.5127 1.04401C39.564 1.06879 39.3824 1.09878 39.3672 1.13709C39.3651 1.14297 39.5196 1.21805 39.5219 1.22468C39.531 1.29582 39.359 1.24455 39.3787 1.3086C39.4212 1.32213 39.4637 1.33566 39.5062 1.34919C39.3422 1.41406 39.0388 1.3807 38.9605 1.45448C39.2037 1.43253 39.4582 1.43512 39.4577 1.60128C39.4575 1.67125 39.3526 1.71227 39.3566 1.73007C39.3721 1.79373 39.5178 1.72457 39.5231 1.72793C39.5276 1.73181 39.5296 1.73559 39.5296 1.73926C39.5296 1.73927 39.5296 1.73927 39.5296 1.73927C39.5296 1.77654 39.322 1.80338 39.3116 1.8204C39.2941 1.85063 39.3865 1.97507 39.3864 2.0026C39.3831 2.00813 39.2353 2.03758 39.2852 2.08561C39.3356 2.13413 39.4651 2.1352 39.4696 2.14024C39.4943 2.16926 39.2679 2.19573 39.2612 2.21287C39.2576 2.22154 39.3792 2.27478 39.3827 2.29009C39.3858 2.30545 39.2934 2.33896 39.257 2.38744C39.2298 2.42346 39.3089 2.45107 39.295 2.45672C39.285 2.46046 39.0712 2.45985 39.0606 2.46618C39.045 2.47554 39.0951 2.51859 39.0878 2.52935C39.0774 2.54483 39.0084 2.5293 39.0174 2.54522C39.0241 2.55709 39.2919 2.70548 39.2901 2.74512C39.2871 2.81272 39.0035 2.65717 39.2674 2.92396C39.2692 2.92571 39.3334 2.90675 39.3352 2.9084C39.3749 2.95748 39.169 3.03299 39.4207 3.01979C38.9524 3.10504 39.3625 3.12142 39.2932 3.23525C39.2664 3.27901 39.0849 3.29705 39.084 3.30361C39.1017 3.35912 39.1595 3.31607 39.1792 3.34329C39.19 3.3585 39.0276 3.41718 39.0641 3.45529C39.083 3.47493 39.2554 3.46794 39.2626 3.47177C39.3308 3.5079 39.2471 3.54682 39.2621 3.57248C39.2721 3.58969 39.3761 3.59105 39.3788 3.59415C39.3832 3.6006 39.2419 3.67012 39.2125 3.69456C39.1901 3.71336 39.2741 3.74282 39.2585 3.75102C39.1644 3.80004 38.9643 3.67502 39.1572 3.8502C39.1689 3.86095 39.2419 3.85661 39.244 3.85875C39.2891 3.90841 39.1548 3.9127 39.1308 3.95336C39.0895 4.02341 39.2825 3.98435 39.122 4.03362C39.2424 4.07943 39.3095 4.07752 39.4504 4.06475C39.0603 4.10038 38.9226 4.28173 39.3557 4.27716C39.2179 4.27433 39.2332 4.37669 39.1921 4.37848C39.1666 4.37948 38.9668 4.27772 39.0584 4.50605C39.0699 4.53457 39.1912 4.49833 39.1532 4.55671C38.8619 4.54181 39.1471 4.59386 39.1473 4.60157C39.1436 4.73607 38.4318 4.62591 38.3095 4.64125C38.1676 4.65904 38.0415 4.76502 38.0107 4.76515C37.9092 4.7652 37.9934 4.71139 37.9707 4.6916C37.9477 4.672 37.6591 4.77509 37.6447 4.76943C37.5888 4.74669 37.6455 4.68292 37.6397 4.6797C37.5705 4.64063 37.1829 4.69056 37.0744 4.67574C37.0777 4.7171 37.2956 4.72038 37.1596 4.78682C37.0012 4.86428 36.9921 4.68193 36.988 4.6739C36.2623 4.67563 35.5365 4.67736 34.8108 4.67909C34.8199 4.77611 35.2943 4.70294 35.3051 4.71571C35.3685 4.79134 34.567 4.78995 34.4687 4.75569C34.5434 4.77665 34.6181 4.79761 34.6927 4.81856C34.5652 4.9301 34.2829 4.78519 34.0985 4.83443C34.0389 4.8504 34.1533 4.89345 34.1509 4.89639C34.084 4.9397 33.9765 4.90633 34.0568 4.84817C33.8933 4.9039 33.9172 4.84241 33.7918 4.83779C33.7853 4.8376 33.8392 4.88261 33.7399 4.90127C33.6934 4.90998 33.4453 4.91012 33.4121 4.94949C33.3984 4.96606 33.5242 5.14061 33.5398 4.99038C33.8096 5.06361 33.626 4.92193 33.7308 4.92538C33.7469 4.92616 33.7099 5.01002 33.9739 4.97055C33.9236 5.12176 33.6196 5.00869 33.5675 5.02701C33.4601 5.06465 33.9029 5.14274 33.9842 5.02487C33.9462 5.14287 34.0156 5.04077 34.1143 5.04562C34.2224 5.05088 34.1753 5.08602 34.2337 5.08621C34.3936 5.08709 34.3273 5.0038 34.4592 5.07889C34.3307 4.84642 34.6848 5.04821 34.7881 5.1091C34.6201 5.1209 34.4522 5.1327 34.2842 5.1445C34.2938 5.15671 34.3035 5.16892 34.313 5.18113C34.2688 5.1794 34.2246 5.17767 34.1803 5.17594C34.1874 5.16424 34.1945 5.15254 34.2016 5.14084C33.9735 5.2169 33.9179 5.13141 33.8993 5.13046C33.6598 5.12055 33.3833 5.12128 33.1412 5.121C33.1049 5.12096 33.1298 5.19705 32.8651 5.13748C32.7807 5.11852 32.8604 5.05932 32.7647 5.06821C32.645 5.22905 32.6472 5.10076 32.6116 5.10056C32.5095 5.10058 32.4471 5.14042 32.4376 5.14084C32.3114 5.14706 32.1266 5.14041 31.988 5.14633C31.9854 5.14694 32.0575 5.19636 31.9675 5.18174C31.9358 5.17651 31.6522 4.96557 31.4042 5.03433C31.4687 5.04857 31.5332 5.06281 31.5977 5.07706C31.5219 5.05715 30.9905 5.11032 31.1204 5.16678C31.2001 5.20129 31.3945 5.06533 31.4158 5.19608C31.239 5.15695 30.2625 5.21547 30.1864 5.18509C30.1759 5.18076 30.2406 5.13833 30.2261 5.13291C30.2148 5.12877 29.9911 5.13882 29.9614 5.12253C29.9438 5.11285 30.0426 5.08685 30.0346 5.07156C30.0275 5.06067 29.7482 5.0425 29.7322 5.09567C29.8008 5.07433 29.9937 5.09297 29.8925 5.13779C29.8795 5.14335 29.8121 5.10906 29.7963 5.11612C29.6497 5.18127 30.0879 5.16563 30.1557 5.16617C29.8804 5.23392 29.4547 5.15405 29.1358 5.19822C29.007 5.15396 29.3269 5.13051 29.1811 5.09384C28.8786 5.01784 29.1006 5.15504 29.0912 5.16068C29.0161 5.20533 28.7602 4.96603 28.7601 5.14817C28.6504 5.12075 28.6859 5.09778 28.5312 5.12161C28.5515 5.13423 28.5719 5.14684 28.5922 5.15946C28.4204 5.26496 28.0568 4.99879 28.0841 4.97848C28.1573 4.92414 28.3467 5.0089 28.3629 5.00686C28.3868 5.00385 28.453 4.81902 28.715 4.98428C28.8223 4.86032 28.2997 4.90061 28.5375 4.81612C28.3769 4.82999 27.7164 4.74371 27.6213 4.79812C27.6099 4.80522 27.6628 4.92873 27.4996 4.86587C27.4221 4.83593 27.6089 4.83449 27.5735 4.80636C27.4644 4.72 25.9808 4.77524 25.699 4.7798C25.6807 4.77994 25.6874 4.74161 25.6694 4.74196C25.6142 4.74303 25.413 4.80019 25.3141 4.78255C25.5189 4.85351 25.1212 4.85902 25.0201 4.85122C24.8666 4.83933 24.8761 4.77187 24.8097 4.75753C24.5541 4.70223 24.158 4.86239 23.9594 4.71266C23.9703 4.86126 23.6159 4.63981 23.4547 4.6385C23.3284 4.63744 23.1452 4.73577 23.3157 4.79567C23.0977 4.78883 22.8682 4.81655 22.6638 4.82558C22.63 4.8271 22.6765 4.78316 22.6188 4.78713C22.6136 4.78781 22.6064 4.83087 22.5569 4.83535C22.1481 4.87288 22.347 4.78137 22.2705 4.75447C22.2277 4.73941 22.1961 4.73192 22.1729 4.72945C22.4112 4.72103 22.686 4.70412 22.7595 4.7029C22.6968 4.6078 22.2314 4.72116 22.0951 4.69557C22.0904 4.69464 22.1069 4.64223 22.1021 4.64186C22.102 4.64186 22.1019 4.64186 22.1018 4.64186C22.0507 4.63784 21.7254 4.65719 21.7923 4.71968C21.8103 4.73638 21.9601 4.73635 22.1377 4.73067C22.0896 4.74239 22.1255 4.8011 22.117 4.80361C22.0141 4.83263 21.7621 4.77533 21.6728 4.7676C21.6523 4.7659 21.6538 4.80352 21.6504 4.80361C21.5691 4.79507 21.6025 4.68766 21.5191 4.79842C21.3719 4.66456 21.795 4.77855 21.7652 4.6916C21.7423 4.62467 20.8024 4.66062 20.8052 4.76607C20.802 4.75479 20.7891 4.74079 20.7626 4.72487C20.7038 4.68948 20.4422 4.70056 20.397 4.71999C20.3894 4.72381 20.3925 4.82616 20.383 4.82711C20.3594 4.82946 20.0397 4.74921 19.9202 4.80971C19.9847 4.82406 20.0492 4.8384 20.1137 4.85274C19.7243 4.85363 19.7845 4.88409 19.9142 4.9147C19.9207 4.91497 19.927 4.91886 19.9332 4.91927C20.0338 4.9419 20.1627 4.96369 20.1647 4.97177C20.1721 5.00258 19.5113 5.01972 19.6384 4.92477C19.6561 4.91179 19.9618 4.95407 19.8105 4.88631C19.784 4.87444 19.5876 4.89378 19.5773 4.88631C19.5083 4.83666 19.9371 4.7707 19.8847 4.70015C19.7806 4.76732 19.6471 4.73194 19.5277 4.74929C19.4734 4.75712 19.4601 4.80844 19.4534 4.80941C19.3533 4.8228 19.4095 4.769 19.376 4.77034C19.3581 4.77127 19.1608 4.88578 19.1981 4.72792C18.548 4.84405 19.0183 4.84393 19.417 4.83504C19.291 4.89254 19.044 4.86473 18.9331 4.87807C18.8934 4.88292 18.9169 4.93559 18.8498 4.94613C18.7115 4.9678 18.0512 4.90729 17.8792 4.89303C17.9849 4.87442 17.954 4.81704 17.8725 4.821C17.7909 4.825 17.8594 4.90158 17.8435 4.90981C17.8265 4.91834 17.4439 4.88219 17.3803 4.89211C17.6683 4.86437 17.6033 4.80716 17.3589 4.80117C17.3942 4.78469 17.4295 4.76821 17.4649 4.75173C17.3216 4.77489 17.0204 4.6876 16.9375 4.71358C16.9246 4.71775 16.9712 4.76586 16.9639 4.76821C16.8913 4.78865 16.6441 4.73958 16.6326 4.756C16.6229 4.76966 16.7283 4.81 16.6892 4.82985C16.681 4.83404 16.5794 4.76901 16.4793 4.78499C16.4421 4.79087 16.4645 4.83637 16.4551 4.83901C16.3772 4.8609 16.4232 4.78428 16.2807 4.79659C16.1763 4.8057 16.0985 4.88061 15.9542 4.8558C16.428 4.95128 16.0297 4.9114 15.8316 4.94033C15.7999 4.94495 15.8271 5.02755 15.6374 4.98733C16.0411 4.83798 15.5223 4.90839 15.4162 4.90676C15.4104 4.90625 15.4084 4.85178 15.3563 4.85091C15.3519 4.85096 15.3582 4.88777 15.3099 4.89059C14.8511 4.9172 15.1444 4.87562 15.0573 4.83932C15.0202 4.82385 14.7971 4.8759 14.737 4.87716C14.7232 4.87729 14.7295 4.83904 14.6761 4.84054C14.5815 4.84328 14.4968 4.884 14.4344 4.88723C14.4271 4.88742 14.4268 4.82707 14.3085 4.84664C14.2752 4.85211 14.2378 4.87354 14.2851 4.89089C14.4418 4.94796 14.739 4.84919 14.9161 4.90615C15.0777 4.95803 14.5684 4.96292 14.5419 4.96322C14.5322 4.96341 14.6316 4.93344 14.5306 4.92751C14.4443 4.92258 14.2866 5.02682 14.158 5.00412C14.1482 5.00243 14.0454 4.91405 14.0501 4.9089C14.0544 4.90513 14.2122 4.88595 14.1893 4.86037C14.1866 4.85746 14.0863 4.85805 14.0732 4.83901C14.0572 4.81583 14.014 4.58836 13.9925 4.58265C13.9376 4.56856 13.9733 4.62044 13.9378 4.61683C13.8616 4.60922 13.5972 4.54195 13.5886 4.6208C13.6322 4.62548 13.6759 4.63016 13.7196 4.63484C13.4766 4.64295 13.5802 4.67651 13.5457 4.6913C13.5087 4.7073 13.5191 4.63799 13.4372 4.63148C13.4193 4.63005 13.0766 4.64452 13.0828 4.6736C13.2724 4.62732 13.2021 4.71296 13.2108 4.71449C13.244 4.72007 13.2864 4.67203 13.331 4.67299C13.6444 4.68051 13.3283 4.75634 13.4023 4.77584C13.4278 4.7824 13.4785 4.74139 13.4893 4.74349C13.5245 4.75028 13.525 4.80399 13.5484 4.79964C13.6031 4.78956 13.5393 4.71357 13.5436 4.70961C13.5925 4.66205 13.7839 4.72123 13.6647 4.80391C13.7362 4.83371 13.7446 4.73322 13.8013 4.77339C13.9141 4.85295 13.7452 4.83251 13.6994 4.84572C13.5352 4.89337 13.4865 4.8548 13.2541 4.868C13.1704 4.87266 13.0713 4.92148 13.0324 4.92416C13.008 4.92584 12.777 4.756 12.7702 5.02182C12.6804 4.9961 12.5395 4.82093 12.4471 4.82894C12.364 4.83625 12.3904 4.93029 12.3827 4.93392C12.3708 4.93964 12.2704 4.93223 12.2364 4.94552C12.1966 4.96122 12.2165 4.99712 12.1533 5.01175C11.9961 5.04805 12.0003 4.95206 11.9841 4.94583C11.7966 4.87372 11.8787 5.01025 11.8371 5.02121C11.7984 5.03127 11.2556 4.97872 11.1413 5.01327C11.1878 4.99405 11.2343 4.97482 11.2808 4.95559C11.1976 4.89572 11.1094 4.99338 11.1079 4.88601C11.091 5.05935 10.9192 4.94348 10.8676 4.94796C10.8473 4.94981 10.8489 4.97934 10.8235 4.98062C10.7241 4.9858 10.4999 4.96228 10.446 4.97726C10.2128 5.04174 10.8091 5.14901 10.856 5.15549C10.7621 5.15358 10.2305 5.1924 10.4748 5.27573C10.5126 5.28859 10.5795 5.21102 10.6007 5.20798C10.7443 5.18801 10.6314 5.25752 10.6427 5.26414C10.6618 5.27481 10.7563 5.20761 10.7812 5.21561C10.7896 5.21818 10.736 5.28112 10.8729 5.28245C10.8056 5.34347 10.4207 5.29375 10.3702 5.30808C10.3522 5.3132 10.4649 5.44359 10.1355 5.31693C10.1394 5.32904 10.1432 5.34115 10.147 5.35325C9.96358 5.35824 9.78016 5.36322 9.59675 5.36821C9.61668 5.34031 9.71967 5.28429 9.58996 5.29618C9.51529 5.30306 9.57054 5.36518 9.56372 5.36698C9.49671 5.38408 8.31067 5.36341 8.08082 5.37034C8.00263 5.37259 7.78469 5.42252 7.76807 5.42344C7.6687 5.42844 7.31682 5.39595 7.24663 5.403C7.2028 5.40752 7.24447 5.45945 7.20531 5.45701C7.16891 5.45468 7.20662 5.40449 7.19581 5.40239C7.10626 5.3842 6.42603 5.45003 6.26451 5.40269C6.36323 5.4169 6.85588 5.31662 6.84597 5.28123C6.84383 5.27637 6.7241 5.23819 6.6994 5.25681C6.65859 5.21335 6.51849 5.34567 6.44229 5.31968C6.43368 5.31673 6.46761 5.24251 6.33161 5.22904C6.28476 5.22444 6.16209 5.28229 6.03862 5.21744C5.85988 5.2486 4.92012 5.15235 4.85564 5.23209C4.85373 5.2363 4.98607 5.26376 4.89666 5.29649C4.7778 5.33999 4.88454 5.19346 4.74601 5.18082C4.72514 5.1789 4.33973 5.19373 4.32711 5.20279C4.21038 5.28503 4.54716 5.31836 4.54244 5.32792C4.5307 5.35199 4.25087 5.36656 4.2395 5.36088C4.22867 5.35497 4.45688 5.24601 4.18265 5.28733C4.21406 5.30035 4.24548 5.31337 4.2769 5.32639C4.14792 5.35175 4.13563 5.27637 4.10439 5.27177C4.00726 5.25719 3.90218 5.37169 3.74655 5.23026C3.70541 5.19273 3.77372 5.15105 3.76857 5.14542C3.71914 5.0949 3.65607 5.23004 3.58174 5.12924C3.57614 5.12173 3.74913 5.06134 3.44678 5.06119C3.46759 5.07085 3.4884 5.08052 3.5092 5.09018C3.46657 5.11176 3.16044 5.12458 3.11925 5.11948C2.99894 5.10457 3.10386 5.03519 2.98293 5.04349C3.06049 5.13856 2.69277 5.15097 2.71392 5.06912C2.66256 5.17192 2.35018 5.09262 2.20333 5.09018C2.11068 5.08872 1.92168 5.13357 1.89224 5.12833C1.85638 5.1219 1.86728 5.05177 1.80252 5.03616C1.78405 5.03171 1.59128 5.08311 1.42207 5.01053C1.38927 4.99654 1.3204 4.87759 1.38135 4.84786C1.48568 4.79699 1.68305 4.89282 1.68053 4.82253C1.67757 4.74734 1.41174 4.79206 1.34019 4.78225C1.00985 4.73686 1.2006 4.65693 1.19211 4.6327C1.17008 4.57391 0.989584 4.57573 0.982052 4.57045C0.950839 4.54696 1.07874 4.50043 1.08067 4.46455C1.083 4.41782 0.909024 4.3335 0.948576 4.31775C1.00519 4.29538 1.16508 4.36566 1.17522 4.36231C1.30718 4.31698 1.1263 4.20903 1.07645 4.156C1.06134 4.13969 1.12155 4.11287 1.10902 4.10809C0.91776 4.03548 1.0687 4.25979 0.941489 4.24481C0.827988 4.23146 0.974023 4.16052 0.969687 4.15661C0.964083 4.15231 0.828376 4.14845 0.807131 4.12335C0.796662 4.11078 1.14939 3.9728 1.13466 3.91094C1.02211 3.92457 0.909571 3.9382 0.797028 3.95183C0.788205 3.87117 0.950079 3.93055 0.966822 3.92223C1.00053 3.90554 0.906542 3.86472 0.910576 3.83922C0.91274 3.82299 1.02305 3.76511 0.923393 3.74125C0.889144 3.73301 0.817268 3.78957 0.692528 3.73179C1.12664 3.658 0.825808 3.61265 0.813012 3.58408C0.800478 3.55551 1.00773 3.48826 0.756163 3.50015C0.745256 3.34317 0.761586 3.45053 0.833068 3.42294C0.920636 3.38903 0.71825 3.33733 1.0383 3.37655C1.02009 3.30306 0.762845 3.30826 0.749227 3.30239C0.737467 3.29708 0.794647 3.26093 0.774258 3.24868C0.5331 3.10666 0.698739 3.17151 0.628893 3.08083C0.622681 3.07272 0.394748 3.0391 0.568274 3.02589C0.884412 3.00188 1.01654 3.10603 1.06966 2.88337C0.835826 2.78665 0.5525 2.93037 0.481417 2.93281C0.372615 2.93632 0.485324 2.89091 0.471917 2.87818C0.46726 2.87407 0.373501 2.87782 0.372242 2.87421C0.305387 2.70439 0.789633 2.8714 0.942092 2.84186C0.901227 2.81643 0.860362 2.791 0.819497 2.76557C0.874938 2.76455 0.93038 2.76353 0.985822 2.76252C0.721698 2.71139 0.97651 2.74316 1.04237 2.60565C1.05716 2.57475 0.883635 2.62774 1.08158 2.54186C0.935584 2.52204 0.98215 2.49395 0.849957 2.53271C0.853369 2.47759 1.1508 2.41542 1.26811 2.38713C0.853675 2.3252 1.09001 2.52737 0.731735 2.4204C0.665296 2.48865 0.836306 2.47536 0.822362 2.48663C0.77233 2.52713 0.655043 2.46282 0.513536 2.60473C0.490495 2.62803 0.58799 2.69975 0.443718 2.69629C0.427762 2.6958 0.335833 2.63451 0.337107 2.63006C0.349294 2.58206 0.440265 2.60005 0.44402 2.58001C0.447544 2.56105 0.346053 2.57245 0.345703 2.5672C0.342584 2.50706 0.430383 2.54421 0.417631 2.52538C0.390092 2.48444 0.0250274 2.35503 0.501473 2.39293C0.105734 2.46092 0.450806 2.45934 0.604917 2.43322C0.644218 2.42667 0.654171 2.39075 0.710171 2.37828C0.782205 2.36214 0.866516 2.37938 0.90379 2.37279C0.943879 2.36552 0.716099 2.28062 1.04554 2.30596C0.877875 2.2215 0.581723 2.31154 0.417028 2.25224C0.0847498 2.13241 0.648707 2.10668 0.707457 2.09507C0.723109 2.09192 0.670634 2.04341 0.681068 2.04044C0.69813 2.03588 1.0182 2.05831 1.04976 2.01816C1.08123 1.97806 0.932524 2.02001 0.922639 1.97818C0.915939 1.95002 1.30206 1.90008 1.09304 1.88083C0.948972 1.86764 0.683424 1.98082 0.638695 1.85916C0.85056 1.84909 1.06243 1.83902 1.27429 1.82895C1.15833 1.78266 1.04237 1.73637 0.926409 1.69009C1.16421 1.67541 1.36978 1.72766 1.59563 1.6614C1.05292 1.51308 1.77184 1.54303 1.77975 1.52498C1.7824 1.51419 1.56878 1.3938 1.53441 1.37178C1.7237 1.32546 2.29887 1.30283 1.96236 1.15418C2.02344 1.18774 2.17135 1.10489 2.1694 1.09863C2.15062 1.03296 1.82802 1.07555 1.88063 1.01623C1.94161 0.947401 2.02704 1.04078 2.12085 1.03332C2.60219 0.994447 2.47013 0.651608 2.95278 0.705858C2.94318 0.69365 2.93357 0.681443 2.92397 0.669235C3.44859 0.688666 3.9732 0.708096 4.49781 0.727526C4.70306 0.62283 5.24933 0.559077 5.51763 0.57066C5.57165 0.572916 5.8369 0.627863 5.85691 0.637496C5.89398 0.655958 5.69017 0.663002 5.78227 0.697618C5.80172 0.704723 6.25078 0.72781 6.21867 0.669235C6.16835 0.662444 6.01086 0.691888 5.98509 0.678086C5.80403 0.579572 7.18845 0.658274 7.25703 0.618574C7.22637 0.599551 7.19571 0.580528 7.16505 0.561504C7.25241 0.570863 7.33977 0.580222 7.42713 0.589581ZM3.41285 5.29404C3.36042 5.35282 3.22901 5.30868 3.15137 5.32517C3.0441 5.34828 2.86175 5.5746 2.94026 5.34776C3.09779 5.32985 3.25532 5.31195 3.41285 5.29404ZM5.71517 5.38163C5.60953 5.35006 5.69146 5.22337 5.77805 5.27604C5.78765 5.28202 5.85809 5.42412 5.71517 5.38163ZM4.60774 5.32151C4.61218 5.31983 4.70347 5.32319 4.70666 5.32517C4.78852 5.37604 4.5133 5.36564 4.60774 5.32151ZM9.95745 5.25651C9.84105 5.26198 9.92534 5.37715 9.99771 5.32975C10.0023 5.32674 9.9651 5.25624 9.95745 5.25651ZM9.87466 5.25345C9.78427 5.15032 9.6022 5.35934 9.74694 5.3383C9.76098 5.33617 9.87884 5.25848 9.87466 5.25345ZM5.33863 5.33128C5.35052 5.29175 5.45949 5.31084 5.50602 5.32029C5.50475 5.35638 5.38427 5.32686 5.33863 5.33128ZM8.10133 5.32029C8.10595 5.28921 7.72722 5.29093 7.70142 5.33189C7.76119 5.31451 8.09697 5.34822 8.10133 5.32029ZM9.07259 5.27665C9.06299 5.27128 8.93215 5.27944 8.93597 5.30686C8.99984 5.34283 9.11582 5.30097 9.07259 5.27665ZM11.0031 5.27848C11.0102 5.27159 10.9122 5.0971 11.1443 5.21195C11.1784 5.22877 11.0567 5.27436 11.0688 5.28062C11.0942 5.29283 11.1142 5.29852 11.1303 5.29954C11.0222 5.314 10.9099 5.3208 10.899 5.31022C10.848 5.26023 10.9999 5.28135 11.0031 5.27848ZM12.0165 5.14847C12.0388 5.12001 12.1811 5.13523 12.2135 5.14694C12.219 5.14915 12.1948 5.22395 12.2589 5.21836C12.3103 5.21374 12.2335 5.13713 12.3337 5.14939C12.4349 5.16169 12.2996 5.21629 12.3085 5.22019C12.3203 5.2253 12.477 5.19089 12.4721 5.23545C12.4685 5.26845 12.3007 5.24614 12.2592 5.25315C12.206 5.26216 12.2705 5.31715 12.1817 5.30534C12.1259 5.29796 12.1568 5.20127 12.145 5.19638C12.1351 5.19245 11.9401 5.24809 12.0168 5.14878C12.0167 5.14867 12.0166 5.14857 12.0165 5.14847ZM11.1596 5.29527C11.1514 5.29853 11.1419 5.30027 11.1303 5.29954C11.1401 5.29823 11.1499 5.2967 11.1596 5.29527ZM3.71805 5.25162C3.77296 5.28144 3.60998 5.31968 3.54826 5.28062C3.54719 5.24911 3.70931 5.24698 3.71805 5.25162ZM11.2599 5.21653C11.4205 5.24075 11.3023 5.27406 11.1596 5.29527C11.2049 5.27707 11.2059 5.20844 11.2599 5.21653ZM6.6994 5.25681C6.70617 5.26402 6.71047 5.27527 6.71101 5.29374C6.6932 5.27354 6.69161 5.26268 6.6994 5.25681ZM7.07412 5.28977C7.20258 5.2335 6.94158 5.23577 6.94323 5.27604C6.94401 5.29124 7.06898 5.29201 7.07412 5.28977ZM10.1067 5.262C10.095 5.25649 10.2775 5.08658 10.0125 5.21409C10.1539 5.23411 10.0047 5.25261 10.0069 5.26749C10.0127 5.31026 10.2503 5.26915 10.3029 5.28764C10.3441 5.21112 10.1455 5.28014 10.107 5.262C10.1069 5.262 10.1068 5.262 10.1067 5.262ZM13.8431 5.18967C13.8109 5.23451 13.7088 5.22008 13.6398 5.21744C13.672 5.1726 13.7742 5.18703 13.8431 5.18967ZM31.88 5.19608C31.4077 5.23753 31.3465 5.05494 31.7787 5.12711C31.7871 5.12862 31.9087 5.17757 31.88 5.19608ZM27.8267 5.14878C27.7822 5.06919 27.9294 5.0564 28.0262 5.08926C28.048 5.09666 28.129 5.17727 28.0366 5.19303C28.0395 5.09657 27.8966 5.05972 27.8267 5.14878ZM11.3506 5.16556C11.3974 5.11249 11.5414 5.15027 11.6172 5.15824C11.5709 5.20193 11.4177 5.18217 11.3506 5.16556ZM30.328 5.10086C30.2782 5.09483 30.2446 5.16407 30.2532 5.16983C30.2917 5.19626 30.3847 5.14028 30.328 5.10086ZM10.8859 5.15732C10.8793 5.12561 11.07 5.09508 11.0833 5.1735C11.0425 5.16782 10.8906 5.17722 10.8859 5.15732ZM13.7131 5.16587C13.6835 5.14974 13.8368 5.12087 13.8832 5.13687C13.8795 5.17063 13.7325 5.17635 13.7131 5.16587ZM29.5266 5.12436C29.482 5.11835 29.3706 5.11651 29.3583 5.1445C29.343 5.17949 29.5063 5.16757 29.5266 5.12436ZM37.8211 5.06393C37.8267 5.07651 37.6543 5.16713 37.5776 5.1442C37.432 5.10032 37.815 5.05505 37.8211 5.06393ZM30.7993 5.06515C30.9398 5.131 30.7838 5.06723 30.7899 5.13657C30.8845 5.13907 31.1198 5.14249 30.958 5.07431C30.9265 5.06112 30.8434 5.06964 30.7993 5.06515ZM30.6696 5.04196C30.6545 5.06442 30.5532 5.13523 30.6408 5.13016C30.6813 5.12771 30.7465 5.04903 30.6696 5.04196ZM36.7524 5.09476C36.6264 5.03337 37.2041 5.06631 37.2207 5.07706C37.2294 5.08273 37.2352 5.08809 37.2384 5.09262C37.2597 5.07317 37.3688 5.06966 37.3814 5.11887C37.3487 5.1148 37.2594 5.11913 37.249 5.11368C37.2445 5.11136 37.2412 5.10918 37.2389 5.10696C37.2004 5.14968 36.7766 5.1064 36.7524 5.09476ZM35.7954 5.03158C35.9395 4.94103 35.9651 5.09499 35.9526 5.09995C35.7957 5.16296 35.898 5.04941 35.8932 5.0441C35.8823 5.03525 35.7708 5.08793 35.7958 5.03158C35.7956 5.03158 35.7955 5.03158 35.7954 5.03158ZM36.5563 5.06943C36.5622 5.06742 36.6832 5.07218 36.6882 5.07461C36.7874 5.12636 36.4449 5.11311 36.5563 5.06943ZM12.7805 5.04074C12.8671 5.05604 12.7821 5.11269 12.7245 5.09232C12.7198 5.09031 12.704 5.02722 12.7805 5.04074ZM30.6004 5.05722C30.5803 5.04652 30.0663 5.00615 30.0972 5.09171C30.1408 5.08161 30.725 5.12564 30.6004 5.05722ZM26.7592 5.03647C26.8498 5.03713 26.751 5.11781 26.7026 5.08774C26.6847 5.07656 26.7363 5.03635 26.7592 5.03647ZM10.6288 5.08408C10.5347 5.1284 10.5541 4.97969 10.6357 5.03067C10.6389 5.03266 10.6325 5.08234 10.6288 5.08408ZM27.4833 5.08285C27.1707 5.13175 27.2447 4.87595 27.6511 4.96231C27.6384 4.9737 27.6257 4.98509 27.613 4.99649C28.0821 5.03486 27.6451 5.01452 27.5302 5.02884C27.4865 5.03428 27.5232 5.07698 27.4836 5.08316C27.4835 5.08306 27.4834 5.08296 27.4833 5.08285ZM26.2825 5.03158C25.9815 4.85002 26.5562 4.96826 26.721 4.94461C26.5612 5.01958 26.3532 5.00823 26.6361 5.08499C26.2224 5.09983 26.3947 5.02752 26.3781 5.02151C26.3586 5.01477 26.2954 5.03938 26.2825 5.03158ZM27.0766 5.03036C27.094 5.02507 27.2251 5.06203 27.2723 5.056C27.2063 5.11802 26.9611 5.06638 27.0766 5.03036ZM34.792 5.0737C34.8029 5.0251 34.8298 4.98931 34.9333 5.00747C34.9013 5.03189 34.8352 5.05289 34.792 5.0737ZM3.31332 5.0383C3.24206 5.03481 3.10017 5.0165 3.14368 5.0676C3.14844 5.07195 3.31311 5.06698 3.31332 5.0383ZM29.1075 5.01785C29.0923 5.01188 28.7004 5.00787 28.8358 5.06149C28.8766 5.07766 29.2332 5.0708 29.1075 5.01785ZM31.1372 5.02395C31.1044 5.02345 30.9711 5.0326 30.9683 5.0441C30.9593 5.08383 31.1228 5.06199 31.1372 5.02395ZM2.95383 4.98855C2.94445 4.98351 2.72679 4.99244 2.75071 5.01602C2.79613 5.06061 2.986 5.00592 2.95383 4.98855ZM13.0958 4.9269C13.114 4.92511 13.138 4.97789 13.1443 4.97848C13.1591 4.97923 13.4922 4.95893 13.3649 5.0267C13.3437 5.03806 12.8645 5.01203 12.8022 5.00534C12.7781 4.93287 12.9828 5.00181 13.0326 4.99435C13.0414 4.99293 13.047 4.93231 13.0956 4.92721C13.0957 4.92711 13.0957 4.92701 13.0958 4.9269ZM35.3311 5.02243C35.3458 4.97636 35.7373 4.94585 35.7328 5.00168C35.5989 5.00859 35.465 5.01551 35.3311 5.02243ZM35.1322 5.0148C35.0486 4.98221 35.2443 4.97143 35.302 4.98581C35.3026 5.0168 35.1443 5.01956 35.1322 5.0148ZM30.3945 4.85183C30.3552 4.86309 30.4762 4.93032 30.4491 4.94338C30.4318 4.95152 30.3438 4.92633 30.3158 4.94735C30.3079 4.95403 30.3975 5.01722 30.4235 5.01449C30.4603 5.01085 30.4246 4.96112 30.4648 4.96078C30.5983 4.95971 30.7166 4.99518 30.8418 4.99435C30.8531 4.99418 30.7654 4.95906 30.8618 4.95956C30.8767 4.95957 30.9662 5.01187 31.0815 5.00412C31.3362 4.84213 31.5232 5.00118 31.8464 4.94277C31.8342 4.92752 31.5925 4.88661 31.5783 4.88509C31.3081 4.85846 30.8242 4.85553 30.5412 4.85519C30.4686 4.85505 30.5039 4.88933 30.4726 4.89059C30.4479 4.89151 30.4773 4.82803 30.3945 4.85183ZM3.35117 5.0032C3.31721 4.93979 3.19807 4.97993 3.12197 4.97665C3.14875 5.03385 3.27681 4.98915 3.35117 5.0032ZM33.3742 4.96566C33.3361 4.96811 33.2178 4.94901 33.208 4.9681C33.1954 4.99304 33.3661 5.00876 33.3742 4.96566ZM14.9738 4.94491C14.9774 4.94318 15.0692 4.94658 15.0727 4.94857C15.1547 4.99946 14.8794 4.98904 14.9738 4.94491ZM17.1689 4.95712C17.2384 4.94929 17.3086 4.92948 17.332 4.98092C17.2877 4.97304 17.1607 4.99295 17.1689 4.95712ZM20.1972 4.95559C20.1829 4.88822 20.3923 4.93185 20.4319 4.93789C20.4172 4.96783 20.2078 5.00414 20.1972 4.95559ZM34.7769 4.8622C34.9049 4.86619 34.8779 4.76414 34.9592 4.81032C34.9725 4.81813 35.0153 5.03064 34.8746 4.95101C34.8493 4.9367 34.9484 4.8862 34.7769 4.8622ZM27.7173 4.96444C27.7499 4.91987 27.8517 4.9331 27.9204 4.93667C27.905 4.96978 27.7663 4.96126 27.7173 4.96444ZM2.56071 4.93759C2.50066 4.87466 2.22319 4.92134 2.29185 4.96292C2.30161 4.96834 2.52179 4.93521 2.56071 4.93759ZM11.6762 4.96231C11.7904 4.91276 11.5539 4.89741 11.4793 4.94583C11.5131 4.94265 11.6685 4.96557 11.6762 4.96231ZM19.4698 4.91897C19.4753 4.91694 19.5963 4.92172 19.6018 4.92416C19.701 4.9759 19.3585 4.96265 19.4698 4.91897ZM16.447 4.87533C16.4906 4.83455 16.7774 4.86745 16.8416 4.90829C16.7798 4.96791 16.3929 4.92626 16.447 4.87533ZM34.25 4.8912C34.3414 4.88909 34.428 4.90164 34.5119 4.91927C34.4943 4.9536 34.2597 4.91684 34.25 4.8912ZM19.9142 4.9147C19.9207 4.91497 19.927 4.91886 19.9332 4.91927C19.9267 4.91782 19.9204 4.91616 19.9142 4.9147ZM32.2054 4.86709C32.1289 4.85353 32.1447 4.91643 32.1495 4.91836C32.2071 4.93873 32.2921 4.88239 32.2054 4.86709ZM3.26371 4.90981C3.23717 4.85305 3.10842 4.89708 3.03436 4.88357C3.05584 4.9284 3.20405 4.91577 3.26371 4.90981ZM25.9601 4.91531C25.8639 4.85376 26.2553 4.78226 26.3377 4.82192C26.3438 4.85995 25.9742 4.92373 25.9601 4.91531ZM11.3217 4.87716C11.314 4.83268 11.1497 4.88636 11.1846 4.90737C11.2067 4.92075 11.3263 4.90479 11.3217 4.87716ZM26.5345 4.84786C26.5713 4.83429 26.657 4.87818 26.6268 4.90493C26.5881 4.93922 26.525 4.85175 26.5345 4.84786ZM29.8331 4.81215C29.817 4.80536 29.6009 4.85101 29.6902 4.89639C29.7521 4.92792 29.762 4.86362 29.7766 4.86343C29.7929 4.86363 30.1399 4.94232 29.8331 4.81215ZM23.7685 4.87655C23.85 4.85944 23.9487 4.8793 24.034 4.87807C23.9993 4.90558 23.8032 4.91309 23.7685 4.87655ZM11.9553 4.86526C11.9355 4.84727 11.3959 4.83643 11.7024 4.89181C11.7203 4.89494 12.0155 4.91974 11.9553 4.86526ZM34.7769 4.8622C34.7607 4.8617 34.7421 4.85958 34.7205 4.85519C34.742 4.85692 34.7606 4.85993 34.7769 4.8622ZM33.3226 4.85549C33.3521 4.82311 33.2036 4.81445 33.1598 4.83169C33.1463 4.87125 33.3186 4.86002 33.3226 4.85549ZM24.0405 4.83291C24.0897 4.81438 24.179 4.83415 24.2399 4.83199C24.2296 4.86209 24.0618 4.86349 24.0405 4.83291ZM20.5866 4.79903C20.6843 4.81692 20.8045 4.80869 20.8063 4.77187C20.8083 4.77762 20.8131 4.78373 20.8209 4.78988C20.8289 4.79596 20.9335 4.77883 20.979 4.7914C21.2511 4.86606 19.928 4.83525 20.6949 4.73128C20.6588 4.75386 20.6227 4.77645 20.5866 4.79903ZM16.059 4.78865C16.0036 4.74383 15.8483 4.8 15.8886 4.81765C15.9167 4.82974 16.1145 4.83378 16.059 4.78865ZM18.1921 4.7621C18.1756 4.7541 18.024 4.7855 18.0201 4.8091C18.1072 4.83398 18.2676 4.79927 18.1921 4.7621ZM15.6329 4.73616C15.5981 4.7294 15.5537 4.80168 15.5578 4.80483C15.5931 4.83121 15.6913 4.77641 15.6329 4.73616ZM34.5116 4.66749C34.4599 4.6468 34.2948 4.69911 34.2589 4.74684C34.2522 4.73762 34.2342 4.72558 34.2012 4.71114C34.2013 4.71114 34.2014 4.71114 34.2015 4.71114C34.1569 4.69186 32.8231 4.67079 33.7177 4.76271C33.7457 4.76566 33.7075 4.72281 33.8215 4.73036C33.829 4.73091 33.8327 4.76589 33.856 4.7676C33.9095 4.77129 34.1947 4.79331 34.252 4.76515C34.2525 4.77164 34.2562 4.77781 34.264 4.78347C34.3343 4.83391 34.5518 4.68345 34.5116 4.66749ZM18.4927 4.75569C18.4622 4.74273 18.3656 4.75504 18.3556 4.78591C18.4035 4.80104 18.5635 4.78593 18.4927 4.75569ZM11.9386 4.7386C11.8764 4.71322 11.7189 4.76068 11.7665 4.78591C11.7957 4.80143 12.0103 4.76775 11.9386 4.7386ZM17.5255 4.77217C17.8819 4.80866 17.6105 4.76922 17.6651 4.72395C17.6186 4.74003 17.572 4.7561 17.5255 4.77217ZM36.161 4.78438C36.1042 4.77397 36.171 4.68464 36.2336 4.73311C36.2532 4.7485 36.1928 4.79004 36.161 4.78438ZM38.7271 4.75661C38.6786 4.6774 38.9155 4.72394 38.8231 4.77828C38.8189 4.78011 38.7306 4.75962 38.7271 4.75661ZM36.934 4.72426C36.8954 4.77819 36.8703 4.78459 36.7616 4.77126C36.9225 4.75607 36.7733 4.70837 36.934 4.72426ZM20.8052 4.76607C20.8059 4.76825 20.8064 4.76986 20.8063 4.77187C20.8056 4.76989 20.8053 4.76801 20.8052 4.76607ZM15.2978 4.7502C15.2532 4.70452 15.1282 4.70788 15.1654 4.75386C15.169 4.75812 15.2795 4.78396 15.2978 4.7502ZM34.2589 4.74684C34.2648 4.75503 34.2618 4.76032 34.252 4.76515C34.2515 4.75905 34.2541 4.75329 34.2589 4.74684ZM15.9691 4.71297C15.9647 4.74705 16.155 4.76031 16.1626 4.7563C16.2718 4.69719 16.0477 4.71092 15.9691 4.71297ZM10.6804 4.69069C10.6705 4.69425 10.7338 4.78223 10.7726 4.74776C10.8027 4.72101 10.7171 4.67715 10.6804 4.69069ZM37.303 4.70229C37.3632 4.70235 37.4481 4.70231 37.4637 4.7441C37.4234 4.73768 37.3017 4.73295 37.303 4.70229ZM38.6343 4.69923C38.5631 4.74837 38.4004 4.74823 38.2966 4.74013C38.2946 4.67546 38.5675 4.71444 38.6343 4.69923ZM34.6751 4.6916C34.6702 4.68897 34.5191 4.66968 34.5397 4.71297C34.5698 4.77645 34.7177 4.71515 34.6751 4.6916ZM10.9738 4.73738C11.0414 4.70757 10.8859 4.61595 10.8146 4.68672C10.7779 4.72296 10.9624 4.74238 10.9738 4.73738ZM14.9074 4.69038C14.8182 4.71544 15.0392 4.76006 15.0701 4.7148C15.029 4.71117 14.9391 4.68151 14.9074 4.69038ZM17.9415 4.64461C17.6605 4.51406 17.8136 4.75222 17.8634 4.73128C17.8704 4.72829 17.9484 4.64768 17.9415 4.64461ZM1.86344 4.67665C1.82366 4.69479 1.97197 4.7605 1.99116 4.71724C2.00302 4.69017 1.88888 4.66509 1.86344 4.67665ZM22.1729 4.72945C22.1611 4.72987 22.1493 4.7303 22.1377 4.73067C22.1464 4.72854 22.1579 4.72784 22.1729 4.72945ZM14.0979 4.51551C14.2958 4.69984 14.275 4.55777 14.2922 4.55854C14.3293 4.56053 14.4156 4.61037 14.4856 4.60218C14.4055 4.62294 14.3253 4.64369 14.2451 4.66444C14.3084 4.67775 14.8586 4.7456 14.8702 4.71571C14.8867 4.67315 14.7136 4.6865 14.7085 4.68275C14.7012 4.67741 14.6742 4.55908 14.6581 4.55458C14.6317 4.54738 14.1717 4.54493 14.0979 4.51551ZM17.3539 4.66505C17.3991 4.67912 17.4119 4.72601 17.4329 4.7148C17.44 4.71096 17.4412 4.66625 17.4656 4.65468C17.4284 4.65814 17.3911 4.66159 17.3539 4.66505ZM13.7437 4.68123C13.6877 4.62658 13.9388 4.64733 13.9468 4.65346C13.9898 4.6905 13.7895 4.72587 13.7437 4.68123ZM15.8741 4.67329C15.865 4.6701 15.6722 4.65304 15.6737 4.68336C15.7247 4.70648 15.9825 4.71321 15.8741 4.67329ZM17.4958 4.65163C17.5635 4.65684 17.6916 4.70187 17.6769 4.63453C17.6768 4.63453 17.6767 4.63453 17.6766 4.63453C17.6163 4.64023 17.556 4.64593 17.4958 4.65163ZM11.2051 4.59517C11.0796 4.48792 11.1391 4.62343 11.2502 4.65803C11.2839 4.60988 11.2257 4.61262 11.2051 4.59517ZM10.8034 4.51521C10.7685 4.49591 10.4086 4.51705 10.4635 4.5738C10.483 4.59403 10.69 4.54302 10.6995 4.54695C10.714 4.55276 10.6479 4.61554 10.7583 4.6031C10.7519 4.58183 10.8154 4.52165 10.8034 4.51521ZM11.1012 4.5265C10.9765 4.44494 10.9484 4.59537 11.0423 4.59578C11.0789 4.59604 11.119 4.53827 11.1012 4.5265ZM11.6107 4.53932C11.5659 4.52505 11.4463 4.50424 11.3639 4.55427C11.4742 4.55854 11.5845 4.56282 11.6947 4.56709C11.7075 4.53875 11.65 4.55185 11.6104 4.53932C11.6105 4.53932 11.6107 4.53932 11.6107 4.53932ZM39.3839 4.31378C39.2848 4.27112 39.5132 4.25478 39.5228 4.26526C39.5515 4.30005 39.4282 4.33284 39.3839 4.31378ZM1.08927 3.31002C1.06173 3.29302 1.04372 3.23707 0.983108 3.26638C1.04408 3.30768 1.10505 3.34898 1.16602 3.39029C1.2134 3.29565 1.11937 3.32878 1.08927 3.31002ZM0.856441 2.96424C0.865054 2.96195 0.818006 2.81643 0.929274 2.91358C1.00445 2.97918 0.595627 3.04311 0.52183 2.97859C0.603371 2.9486 0.782302 2.98293 0.856441 2.96424ZM0.140321 2.33434C0.135607 2.32273 0.290931 2.30571 0.308909 2.31389C0.40331 2.35701 0.165825 2.39651 0.140321 2.33434ZM0.63583 2.36211C0.562986 2.33385 0.724357 2.31563 0.772449 2.3319C0.777114 2.35898 0.647083 2.36623 0.63583 2.36211ZM38.3803 2.20616C38.3014 2.10726 38.2309 2.32016 38.3522 2.27727C38.358 2.27525 38.3836 2.211 38.3803 2.20616ZM0.292171 2.18754C0.365014 2.2158 0.203643 2.23402 0.155552 2.21776C0.151079 2.1907 0.281079 2.18341 0.292171 2.18754ZM38.3248 1.97055C38.2201 1.89939 38.2569 2.13824 38.27 2.14787C38.3239 2.18588 38.5087 2.09213 38.5464 2.06882C38.2699 2.10467 38.3741 2.00409 38.3248 1.97055ZM37.8419 2.11399C37.7448 2.13947 37.993 2.18821 38.0404 2.12162C37.9921 2.12481 37.8695 2.10663 37.8419 2.11399ZM37.2525 2.03739C37.2002 2.02884 37.0449 2.00835 37.0189 2.04594C37.0759 2.03913 37.2304 2.07606 37.2525 2.03739ZM37.1343 1.92478C37.0526 1.87371 37.033 2.0225 37.1272 1.97818C37.1308 1.97647 37.1372 1.92762 37.1343 1.92478ZM36.6754 1.87106C36.6218 1.81189 36.5607 1.95599 36.6475 1.95987C36.6733 1.96076 36.6811 1.87785 36.6754 1.87106ZM38.1937 1.71359C38.117 1.68818 38.0183 1.79137 38.182 1.8027C38.1245 1.81847 38.067 1.83424 38.0095 1.85001C38.2239 1.90785 38.2082 1.76474 38.2697 1.77066C38.3558 1.77906 38.349 1.89716 38.3317 1.93424C38.4023 1.86189 38.702 1.86073 38.8752 1.84695C38.7229 1.81659 38.4759 1.76395 38.3257 1.74472C38.2828 1.73915 38.2412 1.77153 38.2046 1.76791C38.1459 1.76193 38.198 1.7153 38.194 1.71359C38.1939 1.71359 38.1938 1.71359 38.1937 1.71359ZM36.0722 1.86893C35.9148 1.8019 36.0143 1.94662 36.1033 1.92081C36.1071 1.91882 36.0761 1.87056 36.0722 1.86893ZM0.0834722 1.74777C0.293747 1.80826 0.140903 1.88843 0.58079 1.76669C0.395983 1.85287 0.57057 1.82867 0.534496 1.86343C0.505558 1.89094 0.397126 1.86816 0.460155 1.92356C0.377308 1.86326 0.0176265 1.87994 0.00159122 1.87015C0.00174201 1.87015 0.00189281 1.87015 0.0020436 1.87015C-0.00758732 1.86435 0.016374 1.72853 0.0834722 1.74777ZM37.2517 1.65896C37.1992 1.48336 37.1786 1.76207 37.0754 1.61654C36.938 1.82787 37.455 1.61657 37.5176 1.79507C36.9562 1.77433 37.8885 1.97195 37.4966 1.70474C37.8194 1.80172 37.6024 1.67164 37.6522 1.63759C37.7055 1.60133 37.8881 1.64074 37.8789 1.57534C37.8788 1.57534 37.8787 1.57534 37.8786 1.57534C37.7669 1.57991 37.6552 1.58449 37.5435 1.58907C37.6528 1.73016 37.4246 1.68785 37.3472 1.5729C37.3153 1.60158 37.2835 1.63027 37.2517 1.65896ZM37.8838 1.79141C37.8728 1.78818 37.6299 1.80795 37.6456 1.83627C37.678 1.85433 38.0228 1.83268 37.8838 1.79141ZM38.953 1.76059C38.8657 1.76024 38.7309 1.73272 38.6834 1.78592C38.7706 1.78627 38.9055 1.81381 38.953 1.76059ZM34.4616 1.75051C34.3504 1.79417 34.6927 1.8071 34.5937 1.7554C34.5888 1.75296 34.467 1.74848 34.4616 1.75051ZM36.9988 1.68551C36.8858 1.63185 36.9392 1.80266 37.023 1.75814C37.0278 1.75552 37.0041 1.68796 36.9988 1.68551ZM0.253869 1.72701C0.261431 1.68517 0.566519 1.71456 0.6206 1.7142C0.589873 1.7531 0.245195 1.77499 0.253869 1.72701ZM39.1065 1.60402C38.9329 1.45355 38.6974 1.62735 38.6716 1.62356C38.6459 1.61969 38.6862 1.55391 38.6803 1.55214C38.667 1.54845 38.3935 1.55397 38.3803 1.55855C38.3708 1.56212 38.4203 1.65456 38.3638 1.68368C38.4739 1.63115 38.9739 1.66401 38.9999 1.65377C39.02 1.64559 38.8685 1.54852 39.1062 1.60402C39.1063 1.60402 39.1064 1.60402 39.1065 1.60402ZM38.6071 1.60341C38.6754 1.64216 38.4838 1.64701 38.4374 1.63271C38.3344 1.60071 38.5983 1.59882 38.6071 1.60341ZM38.1462 1.56771C38.1243 1.55902 37.9269 1.55112 37.9101 1.59426C38.0036 1.65022 38.1959 1.58796 38.1462 1.56771ZM35.9489 1.57351C35.8976 1.57903 35.7565 1.54588 35.7485 1.58358C35.7998 1.57808 35.9408 1.6112 35.9489 1.57351ZM1.2948 1.39802C1.2096 1.36648 1.407 1.3536 1.46459 1.36872C1.46772 1.39387 1.30205 1.40073 1.2948 1.39802ZM36.9797 1.32508C36.9493 1.31362 36.3298 1.34222 36.2429 1.35987C36.3279 1.38838 36.9419 1.39057 36.9697 1.37666C36.9779 1.37249 36.9836 1.32689 36.9797 1.32508ZM38.3195 1.30769C38.3763 1.25218 38.4134 1.31875 38.4205 1.31959C38.4908 1.32808 38.6364 1.31557 38.6045 1.36903C38.4805 1.34746 38.2064 1.41792 38.3195 1.30769ZM35.9048 1.32234C35.6945 1.34294 36.0985 1.40142 36.0455 1.34339C36.0421 1.33989 35.9266 1.32017 35.9048 1.32234ZM37.0489 1.30891C37.0953 1.26406 37.715 1.30274 37.8145 1.3028C37.7254 1.38553 37.6536 1.3227 37.5339 1.32691C37.5016 1.32815 37.5102 1.36257 37.5067 1.36262C37.4508 1.36422 37.4926 1.32447 37.4582 1.32386C37.4364 1.32359 36.9836 1.3721 37.0489 1.30891ZM38.3519 1.26923C38.3866 1.23741 38.7735 1.22385 38.7891 1.23231C38.9055 1.2952 38.382 1.28031 38.3519 1.26923ZM36.9921 1.23536C37.0587 1.13921 37.3665 1.2036 37.1558 1.25153C37.1357 1.25589 37.0505 1.21422 36.9921 1.23536ZM35.9273 1.23078C35.917 1.22795 35.6977 1.20873 35.6937 1.23933C35.7254 1.25121 36.0451 1.26188 35.9273 1.23078ZM36.041 1.12732C36.0357 1.12806 36.0871 1.18697 35.9843 1.17951C35.9757 1.17881 35.9597 1.11252 35.8305 1.13678C35.8043 1.14178 35.7636 1.18563 35.7666 1.18836C35.9011 1.29239 36.3065 1.09314 36.041 1.12732ZM38.359 1.21552C38.3381 1.18754 38.3884 1.10449 38.4338 1.14655C38.4532 1.16471 38.417 1.21455 38.359 1.21552ZM35.2318 1.20392C35.3593 1.15356 34.9591 1.14403 34.9387 1.15692C34.9515 1.1883 35.2191 1.20884 35.2318 1.20392ZM1.4943 1.00921C1.4942 1.00921 1.4941 1.00921 1.494 1.00921C1.60125 1.02063 1.53482 1.06253 1.53984 1.06384C1.76828 1.12539 1.70769 1.03048 1.74341 1.01929C1.82001 0.995064 1.80767 1.11047 1.93688 1.06262C1.7233 1.13328 1.91771 1.10366 1.92376 1.14472C1.9477 1.31227 1.63939 1.06626 1.5329 1.10138C1.51806 1.10624 1.62762 1.15972 1.5896 1.17493C1.466 1.22422 1.08277 0.965571 1.4943 1.00921ZM38.4688 1.13922C38.5185 1.09001 38.8959 1.13774 38.7958 1.17829C38.7798 1.18479 38.3957 1.21096 38.4688 1.13922ZM20.8395 1.06659C20.9302 1.024 20.72 0.973927 20.681 1.00708C20.6617 1.02359 20.7996 1.08528 20.8395 1.06659ZM19.3656 0.884392C19.2578 0.893039 19.1442 1.07065 19.2783 1.04309C19.2926 1.04008 19.378 0.90903 19.3656 0.884392ZM26.4427 0.975643C26.3301 0.91217 26.3368 1.0301 26.4195 1.02844C26.4486 1.02787 26.4462 0.977652 26.4427 0.975643ZM22.1475 0.990903C22.1362 0.986786 22.0061 0.994316 22.0108 1.02142C22.0589 1.03768 22.2203 1.01916 22.1475 0.990903ZM26.4784 0.958858C26.4117 0.980113 26.5265 1.06541 26.6081 0.982052C26.5667 0.98889 26.4853 0.956687 26.4784 0.958858ZM36.7595 0.974728C36.7037 1.02315 36.5456 1.00852 36.4548 1.01684C36.445 0.954104 36.6947 0.986103 36.7595 0.974728ZM19.8231 0.955806C19.7211 1.00002 19.9397 1.03623 19.9196 0.97778C19.9169 0.974605 19.8271 0.953921 19.8231 0.955806ZM30.0735 0.952449C29.9993 0.989874 30.2348 1.0402 30.17 0.974423C30.1668 0.971741 30.0776 0.950367 30.0735 0.952449ZM31.1017 0.974118C31.0455 0.961493 30.8055 0.965377 30.8989 1.00189C30.9134 1.0075 31.0975 1.0084 31.1017 0.974118ZM1.74974 0.974118C1.71943 0.909669 1.8954 0.92501 1.92059 0.936274C1.93049 0.940959 1.78928 1.05797 1.74974 0.974118ZM25.7118 0.965572C25.6536 0.973636 25.5025 0.958313 25.4759 0.992124C25.5472 0.985125 25.7309 1.03292 25.7118 0.965572ZM20.2883 0.955501C20.1995 0.885468 20.0477 0.89238 20.0852 0.983884C20.2529 0.977752 20.0645 0.901638 20.2883 0.955501ZM26.8534 0.883477C26.8067 0.878135 26.771 0.96601 26.7762 0.97015C26.8268 1.00954 26.8998 0.917667 26.8534 0.883477ZM23.3494 0.955806C23.3467 0.918253 23.1971 0.935297 23.217 0.959469C23.2236 0.967583 23.3516 0.986197 23.3494 0.955806ZM34.7992 0.953365C34.7306 0.919088 34.9401 0.885577 35.002 0.925593C35.0322 0.983253 34.8079 0.957302 34.7992 0.953365ZM28.1483 0.90545C28.1553 0.849719 27.9213 0.881229 28.0135 0.927424C28.0366 0.938983 28.1459 0.924085 28.1483 0.90545ZM30.388 0.838614C30.2311 0.905074 30.8901 0.952257 30.7169 0.869438C30.7045 0.863537 30.4017 0.833002 30.388 0.838614ZM31.4643 0.88012C31.4372 0.872797 31.4507 0.685526 31.5627 0.75774C31.5774 0.767105 31.5086 0.81661 31.5207 0.827933C31.5277 0.834386 31.7714 0.860687 31.7826 0.856315C31.7946 0.851351 31.7804 0.791329 31.7927 0.784596C31.8065 0.777072 31.9565 0.829798 32.035 0.830374C32.183 0.831363 32.199 0.781405 32.2111 0.781239C32.2465 0.780908 32.3059 0.81638 32.3776 0.816336C32.7389 0.815937 33.2915 0.77359 33.5779 0.879509C33.323 0.836975 33.0802 0.882104 32.8265 0.89599C32.9008 0.791708 32.4534 0.976338 32.7151 0.85601C32.5946 0.882111 31.553 0.902984 31.4646 0.88012C31.4645 0.88012 31.4644 0.88012 31.4643 0.88012ZM18.9402 0.8319C19.0064 0.76796 18.6667 0.782342 18.6379 0.856315C18.6827 0.866581 18.932 0.839147 18.9402 0.8319ZM20.5076 0.675949C20.5391 0.664913 20.5691 0.539929 20.7345 0.603315C20.7347 0.603315 20.7348 0.603315 20.735 0.603315C20.7834 0.621826 20.7282 0.65228 20.7371 0.663132C20.7403 0.667563 20.8912 0.729735 20.7659 0.739734C20.5748 0.755074 20.7479 0.646754 20.646 0.645431C20.6336 0.645328 20.4407 0.712981 20.4519 0.727831C20.4531 0.729561 20.5111 0.71525 20.5207 0.721422C20.5569 0.744625 20.5393 0.783654 20.5444 0.785512C20.5611 0.790271 20.866 0.723779 20.9104 0.78185C20.9248 0.800575 20.4242 0.843772 20.4047 0.834037C20.3924 0.827902 20.3976 0.719565 20.3848 0.70891C20.3783 0.703603 20.1769 0.7442 20.1508 0.73424C20.1432 0.73136 20.1374 0.728254 20.1332 0.725695C20.1636 0.759213 19.9813 0.7568 19.9869 0.718981C19.9901 0.704117 20.1155 0.71272 20.12 0.715319C20.122 0.716419 20.1237 0.717935 20.1253 0.718981C20.0993 0.678133 20.5242 0.679976 20.4325 0.619185C20.5557 0.585882 20.415 0.708363 20.5076 0.675949ZM21.0996 0.609113C21.0869 0.620507 21.0742 0.631901 21.0614 0.643294C21.2771 0.615407 21.5259 0.670254 21.7742 0.669846C21.8373 0.669825 21.7648 0.600143 21.8474 0.619185C21.9136 0.634445 21.9868 0.699077 21.9508 0.713488C21.942 0.717083 21.8073 0.674986 21.7399 0.679307C21.5408 0.692096 21.5911 0.751853 21.5794 0.753467C21.5666 0.755166 21.4413 0.713142 21.3728 0.715013C21.2008 0.71985 21.1222 0.756538 20.8871 0.708605C21.0228 0.669222 20.9485 0.583665 21.0996 0.609113ZM29.1365 0.736377C29.1446 0.698764 29.2857 0.732135 29.337 0.726611C29.3289 0.764316 29.1877 0.73085 29.1365 0.736377ZM8.11037 0.687547C8.06703 0.749268 8.39186 0.764551 8.30625 0.713182C8.28731 0.701782 8.15119 0.687986 8.11037 0.687547ZM9.56961 0.725085C9.61306 0.70802 9.43809 0.663582 9.43841 0.711351C9.43867 0.72667 9.56401 0.727304 9.56961 0.725085ZM23.8867 0.669846C23.8949 0.667913 24.0145 0.68166 24.0182 0.6848C24.0974 0.750336 23.704 0.712458 23.8867 0.669846ZM11.3435 0.649093C11.1921 0.689549 11.648 0.707083 11.5087 0.655502C11.5017 0.65299 11.3508 0.647127 11.3435 0.649093ZM11.9772 0.637801C11.9409 0.639969 11.7797 0.619882 11.7775 0.638717C11.7743 0.669102 11.9589 0.689863 11.9772 0.637801ZM26.885 0.650314C26.8675 0.58077 27.08 0.633435 27.154 0.624678C27.1715 0.69427 26.9588 0.641531 26.885 0.650314ZM25.543 0.599042C26.4393 0.54422 26.2417 0.692804 25.4897 0.632918C25.4886 0.588303 25.4865 0.602495 25.543 0.599042ZM26.6907 0.607282C26.6582 0.651834 26.5564 0.638623 26.4876 0.635054C26.5 0.604079 26.6411 0.615289 26.6907 0.607282ZM7.72359 0.592023C7.7798 0.535743 8.02872 0.605126 7.98446 0.62834C7.97416 0.633353 7.70295 0.622973 7.72359 0.592023ZM23.9618 0.610334C23.9409 0.542701 24.2101 0.570289 24.2307 0.585309C24.3137 0.645724 23.9836 0.595407 23.9618 0.610334ZM28.157 0.590802C28.2046 0.537826 28.3395 0.565074 28.4264 0.565777C28.3868 0.611076 28.2307 0.591755 28.157 0.590802ZM27.5303 0.549297C27.5358 0.547263 27.6569 0.552046 27.6623 0.554485C27.7615 0.606228 27.419 0.592977 27.5303 0.549297ZM1.34562 0.500467C1.34965 0.49876 1.44134 0.502138 1.44454 0.504129C1.52638 0.554991 1.25118 0.544598 1.34562 0.500467Z" fill="#090077"/>
</svg>
